<?xml version="1.0" encoding="utf-8"?>
<!-- Generator: Adobe Illustrator 26.4.1, SVG Export Plug-In . SVG Version: 6.00 Build 0)  -->
<svg version="1.1" id="Capa_1" xmlns="http://www.w3.org/2000/svg" xmlns:xlink="http://www.w3.org/1999/xlink" x="0px" y="0px"
	 viewBox="0 0 189.5 163.1" style="enable-background:new 0 0 189.5 163.1;" xml:space="preserve">
<style type="text/css">
	.st0{fill:#F7AD94;}
	.st1{fill:#F7C69C;}
	.st2{fill:#EF2163;}
	.st3{fill:#CEDEEA;}
	.st4{fill:#FFFFFF;}
	.st5{fill:#062133;}
	.st6{fill:#D52252;}
</style>
<g>
	<path class="st0" d="M155.8,86.1H52.2c-5.3,0-9.7,4.3-9.7,9.7v42.7c0,5.3,4.3,9.7,9.7,9.7h103.7c5.3,0,9.7-4.3,9.7-9.7V95.7
		C165.5,90.4,161.2,86.1,155.8,86.1z"/>
	<path class="st1" d="M155.8,86.1H42.5v24.3c0,5.3,4.3,9.7,9.7,9.7h103.7c5.3,0,9.7-4.3,9.7-9.7V95.7
		C165.5,90.4,161.2,86.1,155.8,86.1z"/>
	<path class="st1" d="M138.8,15.1H52.2c-5.3,0-9.7,4.3-9.7,9.7v61.3h106V24.7C148.5,19.4,144.2,15.1,138.8,15.1z"/>
	<path class="st2" d="M129.4,24.1h-18.8c-3.4,0-6.1,2.7-6.1,6.1v52.9h24.9c3.4,0,6.1-2.7,6.1-6.1V30.2
		C135.5,26.8,132.8,24.1,129.4,24.1z"/>
	<rect x="63.5" y="77.1" class="st3" width="20" height="10"/>
	<rect x="63.5" y="77.1" class="st4" width="20" height="7"/>
	<path class="st5" d="M92,38.1L92,38.1c-1.9,0-3.5,1.6-3.5,3.5v10c0,1.9,1.6,3.5,3.5,3.5l0,0c1.9,0,3.5-1.6,3.5-3.5v-10
		C95.5,39.6,93.9,38.1,92,38.1z"/>
	<path class="st5" d="M142,38.1L142,38.1c-1.9,0-3.5,1.6-3.5,3.5v10c0,1.9,1.6,3.5,3.5,3.5l0,0c1.9,0,3.5-1.6,3.5-3.5v-10
		C145.5,39.6,143.9,38.1,142,38.1z"/>
	<path class="st6" d="M104.5,66.1h-2.4c-3.6,0-6.6,2.9-6.6,6.6v10.4h9c0,0,0,0,0,0L104.5,66.1C104.5,66.1,104.5,66.1,104.5,66.1z"/>
	<path class="st6" d="M131,87.1H60c-2.5,0-4.5,2-4.5,4.5v0c0,2.5,2,4.5,4.5,4.5h71c2.5,0,4.5-2,4.5-4.5v0
		C135.5,89.1,133.5,87.1,131,87.1z"/>
	<path class="st1" d="M42.5,56.1H26c-6.4,0-11.5,5.1-11.5,11.5v0c0,6.4,5.1,11.5,11.5,11.5h16.5V56.1z"/>
	<path class="st0" d="M153.3,56.1h-4.8v23h4.8c6.2,0,11.2-5,11.2-11.2v-0.6C164.5,61.1,159.5,56.1,153.3,56.1z"/>
</g>
</svg>
