<?xml version="1.0" encoding="utf-8"?>
<!-- Generator: Adobe Illustrator 26.4.1, SVG Export Plug-In . SVG Version: 6.00 Build 0)  -->
<svg version="1.1" id="Capa_1" xmlns="http://www.w3.org/2000/svg" xmlns:xlink="http://www.w3.org/1999/xlink" x="0px" y="0px"
	 viewBox="0 0 189.5 163.1" style="enable-background:new 0 0 189.5 163.1;" xml:space="preserve">
<style type="text/css">
	.st0{fill:#062133;}
	.st1{fill:#F7C69C;}
	.st2{fill:#CF2E34;}
	.st3{fill:#F2AE4D;}
	.st4{fill:#FFCE39;}
	.st5{fill:#EF4242;}
</style>
<g>
	<rect x="116.8" y="91.1" class="st0" width="53" height="44"/>
	<path class="st1" d="M160.4,91.1H34.8v52.3c0,8.7,7,15.7,15.7,15.7h78.7c13.4,0,24.8-8.3,29.4-20H90.6c-8.7,0-15.8-7.1-15.8-15.8
		v-0.3c0-8.7,7.1-15.8,15.8-15.8h70.2V91.4C160.8,91.2,160.6,91.1,160.4,91.1z"/>
	<path class="st1" d="M74.8,122.9v0.3c0,8.7,7.1,15.8,15.8,15.8h67.9c1.4-3.6,2.2-7.5,2.2-11.7v-20.3H90.6
		C81.9,107.1,74.8,114.2,74.8,122.9z"/>
	<path class="st2" d="M174.8,75.1h-160c-4.4,0-8,3.6-8,8v0c0,4.4,3.6,8,8,8h160c4.4,0,8-3.6,8-8v0C182.8,78.7,179.2,75.1,174.8,75.1
		z"/>
	<rect x="16.8" y="91.1" class="st0" width="53" height="44"/>
	<rect x="16.8" y="91.1" width="53" height="6"/>
	<rect x="20.8" y="63.1" class="st3" width="155" height="12"/>
	<rect x="90.8" y="63.1" class="st4" width="85" height="12"/>
	<path class="st2" d="M113.3,4.1h-61C36,4.1,22.8,17.3,22.8,33.6v29.5h120V33.6C142.8,17.3,129.6,4.1,113.3,4.1z"/>
	<path class="st5" d="M141.3,4.1h-28C97,4.1,83.8,17.3,83.8,33.6v29.5h87V33.6C170.8,17.3,157.6,4.1,141.3,4.1z"/>
	<path class="st5" d="M174.8,75.1h-84c-4.4,0-8,3.6-8,8v0c0,4.4,3.6,8,8,8h84c4.4,0,8-3.6,8-8v0C182.8,78.7,179.2,75.1,174.8,75.1z"
		/>
	<path class="st0" d="M144.3,127.1L144.3,127.1c-1.9,0-3.5-1.6-3.5-3.5v-9c0-1.9,1.6-3.5,3.5-3.5h0c1.9,0,3.5,1.6,3.5,3.5v9
		C147.8,125.5,146.2,127.1,144.3,127.1z"/>
	<path class="st0" d="M110.3,127.1L110.3,127.1c-1.9,0-3.5-1.6-3.5-3.5v-9c0-1.9,1.6-3.5,3.5-3.5h0c1.9,0,3.5,1.6,3.5,3.5v9
		C113.8,125.5,112.2,127.1,110.3,127.1z"/>
	<circle class="st4" cx="131.3" cy="36.6" r="19.5"/>
</g>
</svg>
