<?xml version="1.0" encoding="utf-8"?>
<!-- Generator: Adobe Illustrator 26.4.1, SVG Export Plug-In . SVG Version: 6.00 Build 0)  -->
<svg version="1.1" id="Capa_1" xmlns="http://www.w3.org/2000/svg" xmlns:xlink="http://www.w3.org/1999/xlink" x="0px" y="0px"
	 viewBox="0 0 806.5 814.1" style="enable-background:new 0 0 806.5 814.1;" xml:space="preserve">
<style type="text/css">
	.st0{opacity:0.4;}
	.st1{clip-path:url(#SVGID_00000008836416365547365680000009944500734926189960_);}
	.st2{clip-path:url(#SVGID_00000021799595521359902360000005362932120522290065_);}
	.st3{clip-path:url(#SVGID_00000026855253059815320560000009972941728887241112_);}
	.st4{clip-path:url(#SVGID_00000041985641983668956700000007365211565426783899_);}
	.st5{opacity:0.8;}
	.st6{opacity:0;fill:url(#SVGID_00000151534676662051360320000014199027501984669356_);}
	.st7{opacity:0.32;fill:url(#SVGID_00000165202094639594930410000008092778960649926817_);}
	.st8{opacity:0.35;fill:url(#SVGID_00000142858435637285117790000015976752690637593995_);}
	.st9{opacity:0.22;fill:url(#SVGID_00000175311592978294479070000010517047388799524992_);}
	.st10{opacity:0.8;clip-path:url(#SVGID_00000042713572376868513250000017241054321532873871_);}
	.st11{fill-rule:evenodd;clip-rule:evenodd;fill:#F6DF9C;}
	.st12{clip-path:url(#SVGID_00000178925651415906123790000016539655624956532103_);}
	.st13{clip-path:url(#SVGID_00000101095260396213117250000016129392402725571001_);}
	.st14{filter:url(#Adobe_OpacityMaskFilter);}
	.st15{mask:url(#SVGID_00000000220384737451855050000014680286517445440695_);}
	.st16{clip-path:url(#SVGID_00000135684969377748338040000005728012075751323061_);}
	.st17{clip-path:url(#SVGID_00000165926954409358725190000004819615386321769393_);}
	.st18{clip-path:url(#SVGID_00000095335418784100956160000001211590901066277252_);}
	.st19{clip-path:url(#SVGID_00000023968646303109586170000012165237101971999643_);}
	.st20{opacity:0;}
	.st21{opacity:0.32;}
	.st22{opacity:0.35;}
	.st23{opacity:0.22;}
	.st24{opacity:0.8;clip-path:url(#SVGID_00000140010504979728393390000012049249766333742980_);}
	.st25{fill-rule:evenodd;clip-rule:evenodd;}
	.st26{clip-path:url(#SVGID_00000000213144639028938620000007045618915823745704_);}
	.st27{clip-path:url(#SVGID_00000137846693403159828680000013472687642188289724_);}
</style>
<g class="st0">
	<g>
		<g>
			<defs>
				<path id="SVGID_1_" d="M801,402c39.4,125.9-142.7,395.3-395,395C183.8,796.7,11,587.2,11,402c0-105.2,55.7-183.5,81-219
					C161.6,85.3,302.7-29.8,406,7c62.3,22.2,51.2,78.4,135,180C664.6,336.8,775,319,801,402z"/>
			</defs>
			<clipPath id="SVGID_00000110457631007916600880000017943542268798669246_">
				<use xlink:href="#SVGID_1_"  style="overflow:visible;"/>
			</clipPath>
			<g style="clip-path:url(#SVGID_00000110457631007916600880000017943542268798669246_);">
				<defs>
					<rect id="SVGID_00000140713878744058593790000008120747733020770476_" x="11" y="7.5" width="790" height="790"/>
				</defs>
				<clipPath id="SVGID_00000098942483105245415890000008719093557001934217_">
					<use xlink:href="#SVGID_00000140713878744058593790000008120747733020770476_"  style="overflow:visible;"/>
				</clipPath>
				<g style="clip-path:url(#SVGID_00000098942483105245415890000008719093557001934217_);">
					<defs>
						<rect id="SVGID_00000136407120654777072910000010518441105402105224_" x="-2" y="-10.8" width="831" height="831"/>
					</defs>
					<clipPath id="SVGID_00000106852225483966341350000014159626493353718416_">
						<use xlink:href="#SVGID_00000136407120654777072910000010518441105402105224_"  style="overflow:visible;"/>
					</clipPath>
				</g>
			</g>
		</g>
		<g>
			<defs>
				<path id="SVGID_00000037672438326416577780000000846818742952221095_" d="M801,402c39.4,125.9-142.7,395.3-395,395
					C183.8,796.7,11,587.2,11,402c0-105.2,55.7-183.5,81-219C161.6,85.3,302.7-29.8,406,7c62.3,22.2,51.2,78.4,135,180
					C664.6,336.8,775,319,801,402z"/>
			</defs>
			<clipPath id="SVGID_00000165936329265334768300000015785364781414985602_">
				<use xlink:href="#SVGID_00000037672438326416577780000000846818742952221095_"  style="overflow:visible;"/>
			</clipPath>
			<g style="clip-path:url(#SVGID_00000165936329265334768300000015785364781414985602_);">
				<defs>
					<rect id="SVGID_00000096019531728562842100000006667846906055938738_" x="11" y="7.5" width="790" height="790"/>
				</defs>
				<clipPath id="SVGID_00000176733180930567426050000012815232878478448263_">
					<use xlink:href="#SVGID_00000096019531728562842100000006667846906055938738_"  style="overflow:visible;"/>
				</clipPath>
				<g style="clip-path:url(#SVGID_00000176733180930567426050000012815232878478448263_);">
					<g class="st5">
						
							<image style="overflow:visible;" width="791" height="791" xlink:href="B298CFAD.png"  transform="matrix(1 0 0 1 11 7.1384)">
						</image>
					</g>
					
						<linearGradient id="SVGID_00000129901994062115055810000012854850806025217939_" gradientUnits="userSpaceOnUse" x1="2.2306" y1="405.2903" x2="806.509" y2="405.2903">
						<stop  offset="5.381100e-04" style="stop-color:#FFFFFF;stop-opacity:0"/>
						<stop  offset="1" style="stop-color:#005873"/>
					</linearGradient>
					
						<rect x="2.2" y="6.1" style="opacity:0;fill:url(#SVGID_00000129901994062115055810000012854850806025217939_);" width="804.3" height="798.4"/>
					
						<linearGradient id="SVGID_00000110443801777794766130000000340328780076768186_" gradientUnits="userSpaceOnUse" x1="2.2306" y1="405.2903" x2="806.509" y2="405.2903">
						<stop  offset="5.381100e-04" style="stop-color:#FFFFFF;stop-opacity:0"/>
						<stop  offset="1" style="stop-color:#05495D"/>
					</linearGradient>
					
						<rect x="2.2" y="6.1" style="opacity:0.32;fill:url(#SVGID_00000110443801777794766130000000340328780076768186_);" width="804.3" height="798.4"/>
					
						<linearGradient id="SVGID_00000024708014992471937740000000160318013042955670_" gradientUnits="userSpaceOnUse" x1="18.172" y1="410.667" x2="822.4504" y2="410.667" gradientTransform="matrix(-1 0 0 -1 824.681 815.9573)">
						<stop  offset="5.381100e-04" style="stop-color:#FFFFFF;stop-opacity:0"/>
						<stop  offset="1" style="stop-color:#025770"/>
					</linearGradient>
					
						<rect x="2.2" y="6.1" style="opacity:0.35;fill:url(#SVGID_00000024708014992471937740000000160318013042955670_);" width="804.3" height="798.4"/>
					
						<linearGradient id="SVGID_00000127014249827073013740000005472353061573773991_" gradientUnits="userSpaceOnUse" x1="18.172" y1="410.667" x2="822.4504" y2="410.667" gradientTransform="matrix(-1 0 0 -1 824.681 815.9573)">
						<stop  offset="5.381100e-04" style="stop-color:#FFFFFF;stop-opacity:0"/>
						<stop  offset="1" style="stop-color:#05495D"/>
					</linearGradient>
					
						<rect x="2.2" y="6.1" style="opacity:0.22;fill:url(#SVGID_00000127014249827073013740000005472353061573773991_);" width="804.3" height="798.4"/>
				</g>
				<g style="clip-path:url(#SVGID_00000176733180930567426050000012815232878478448263_);">
					<defs>
						<rect id="SVGID_00000050654045977217171380000012673460327226026898_" x="-2" y="-10.8" width="831" height="831"/>
					</defs>
					<clipPath id="SVGID_00000162310400427976071420000005764800034527572152_">
						<use xlink:href="#SVGID_00000050654045977217171380000012673460327226026898_"  style="overflow:visible;"/>
					</clipPath>
					<g style="opacity:0.8;clip-path:url(#SVGID_00000162310400427976071420000005764800034527572152_);">
						<g>
							<polygon class="st11" points="413.5,-208 379.5,-208 413.5,404.6 447.5,-208 							"/>
							<polygon class="st11" points="413.5,1017.3 379.5,1017.3 413.5,404.6 447.5,1017.3 							"/>
						</g>
						<g>
							<polygon class="st11" points="571.9,-187.2 539,-196 413.5,404.6 604.8,-178.4 							"/>
							<polygon class="st11" points="255.1,996.4 222.2,987.6 413.5,404.6 288,1005.2 							"/>
						</g>
						<g>
							<polygon class="st11" points="719.5,-126.1 690,-143.1 413.5,404.6 749,-109.1 							"/>
							<polygon class="st11" points="107.5,935.4 78,918.4 413.5,404.6 137,952.4 							"/>
						</g>
						<g>
							<polygon class="st11" points="846.3,-28.9 822.2,-53 413.5,404.6 870.4,-4.9 							"/>
							<polygon class="st11" points="-19.3,838.2 -43.4,814.2 413.5,404.6 4.8,862.3 							"/>
						</g>
						<g>
							<polygon class="st11" points="943.7,97.7 926.6,68.2 413.5,404.6 960.7,127.2 							"/>
							<polygon class="st11" points="-116.7,711.6 -133.7,682.1 413.5,404.6 -99.6,741 							"/>
						</g>
						<g>
							<polygon class="st11" points="1005,245.2 996.1,212.3 413.5,404.6 1013.9,278.1 							"/>
							<polygon class="st11" points="-178,564.1 -186.9,531.2 413.5,404.6 -169.1,596.9 							"/>
						</g>
						<g>
							<polygon class="st11" points="1026.1,403.5 1026.1,369.5 413.5,404.6 1026.2,437.6 							"/>
							<polygon class="st11" points="-199.1,405.7 -199.2,371.7 413.5,404.6 -199.1,439.8 							"/>
						</g>
						<g>
							<polygon class="st11" points="1005.6,562 1014.3,529.1 413.5,404.6 996.8,594.9 							"/>
							<polygon class="st11" points="-178.6,247.3 -169.8,214.4 413.5,404.6 -187.3,280.2 							"/>
						</g>
						<g>
							<polygon class="st11" points="944.8,709.7 961.7,680.2 413.5,404.6 927.8,739.2 							"/>
							<polygon class="st11" points="-117.8,99.6 -100.8,70.1 413.5,404.6 -134.7,129.1 							"/>
						</g>
						<g>
							<polygon class="st11" points="847.8,836.7 871.8,812.5 413.5,404.6 823.8,860.8 							"/>
							<polygon class="st11" points="-20.8,-27.4 3.2,-51.5 413.5,404.6 -44.8,-3.3 							"/>
						</g>
						<g>
							<polygon class="st11" points="721.4,934.3 750.8,917.2 413.5,404.6 691.9,951.4 							"/>
							<polygon class="st11" points="105.6,-125 135.1,-142.1 413.5,404.6 76.2,-107.9 							"/>
						</g>
						<g>
							<polygon class="st11" points="574,995.9 606.8,986.9 413.5,404.6 541.1,1004.8 							"/>
							<polygon class="st11" points="253,-186.6 285.9,-195.5 413.5,404.6 220.2,-177.7 							"/>
						</g>
						<g>
							<polygon class="st11" points="574,995.9 606.8,986.9 413.5,404.6 541.1,1004.8 							"/>
							<polygon class="st11" points="253,-186.6 285.9,-195.5 413.5,404.6 220.2,-177.7 							"/>
						</g>
					</g>
				</g>
			</g>
		</g>
		<g>
			<defs>
				<path id="SVGID_00000060031728761084387240000011529252810703496119_" d="M801,402c39.4,125.9-142.7,395.3-395,395
					C183.8,796.7,11,587.2,11,402c0-105.2,55.7-183.5,81-219C161.6,85.3,302.7-29.8,406,7c62.3,22.2,51.2,78.4,135,180
					C664.6,336.8,775,319,801,402z"/>
			</defs>
			<clipPath id="SVGID_00000054951155496418533580000002699758914716006558_">
				<use xlink:href="#SVGID_00000060031728761084387240000011529252810703496119_"  style="overflow:visible;"/>
			</clipPath>
			<g style="clip-path:url(#SVGID_00000054951155496418533580000002699758914716006558_);">
				<defs>
					<rect id="SVGID_00000048485249811282846780000016212815289554997651_" x="11" y="7.5" width="790" height="790"/>
				</defs>
				<clipPath id="SVGID_00000156582500944217823480000005953455863310941592_">
					<use xlink:href="#SVGID_00000048485249811282846780000016212815289554997651_"  style="overflow:visible;"/>
				</clipPath>
				<g style="clip-path:url(#SVGID_00000156582500944217823480000005953455863310941592_);">
					<defs>
						<rect id="SVGID_00000089554433244841525720000006907324837794957716_" x="-2" y="-10.8" width="831" height="831"/>
					</defs>
					<clipPath id="SVGID_00000056426243453277347290000001191388279551007628_">
						<use xlink:href="#SVGID_00000089554433244841525720000006907324837794957716_"  style="overflow:visible;"/>
					</clipPath>
				</g>
			</g>
		</g>
	</g>
	<defs>
		<filter id="Adobe_OpacityMaskFilter" filterUnits="userSpaceOnUse" x="-199.2" y="-208" width="1225.4" height="1225.2">
			
				<feColorMatrix  type="matrix" values="-1 0 0 0 1  0 -1 0 0 1  0 0 -1 0 1  0 0 0 1 0" color-interpolation-filters="sRGB" result="source"/>
		</filter>
	</defs>
	
		<mask maskUnits="userSpaceOnUse" x="-199.2" y="-208" width="1225.4" height="1225.2" id="SVGID_00000163756576440619442750000001537488825620637351_">
		<g class="st14">
			<image style="overflow:visible;" width="801" height="802" xlink:href="B298CFAF.jpg"  transform="matrix(1 0 0 1 8 -2.8616)">
			</image>
		</g>
	</mask>
	<g style="mask:url(#SVGID_00000163756576440619442750000001537488825620637351_);">
		<g>
			<defs>
				<path id="SVGID_00000143587994476101935650000012384052547313739178_" d="M801,402c39.4,125.9-142.7,395.3-395,395
					C183.8,796.7,11,587.2,11,402c0-105.2,55.7-183.5,81-219C161.6,85.3,302.7-29.8,406,7c62.3,22.2,51.2,78.4,135,180
					C664.6,336.8,775,319,801,402z"/>
			</defs>
			<clipPath id="SVGID_00000054968357639300274070000016438084078521180564_">
				<use xlink:href="#SVGID_00000143587994476101935650000012384052547313739178_"  style="overflow:visible;"/>
			</clipPath>
			<g style="clip-path:url(#SVGID_00000054968357639300274070000016438084078521180564_);">
				<defs>
					<rect id="SVGID_00000073682898897359454880000009128925463750891695_" x="11" y="7.5" width="790" height="790"/>
				</defs>
				<clipPath id="SVGID_00000142166434833087409300000001568154015099722628_">
					<use xlink:href="#SVGID_00000073682898897359454880000009128925463750891695_"  style="overflow:visible;"/>
				</clipPath>
				<g style="clip-path:url(#SVGID_00000142166434833087409300000001568154015099722628_);">
					<defs>
						<rect id="SVGID_00000056416215081861078880000015822199791385164967_" x="-2" y="-10.8" width="831" height="831"/>
					</defs>
					<clipPath id="SVGID_00000052818478975619656870000006259450368151772059_">
						<use xlink:href="#SVGID_00000056416215081861078880000015822199791385164967_"  style="overflow:visible;"/>
					</clipPath>
				</g>
			</g>
		</g>
		<g>
			<defs>
				<path id="SVGID_00000032617628338746769310000002074533648735499911_" d="M801,402c39.4,125.9-142.7,395.3-395,395
					C183.8,796.7,11,587.2,11,402c0-105.2,55.7-183.5,81-219C161.6,85.3,302.7-29.8,406,7c62.3,22.2,51.2,78.4,135,180
					C664.6,336.8,775,319,801,402z"/>
			</defs>
			<clipPath id="SVGID_00000158723955809123305890000007914248845118079411_">
				<use xlink:href="#SVGID_00000032617628338746769310000002074533648735499911_"  style="overflow:visible;"/>
			</clipPath>
			<g style="clip-path:url(#SVGID_00000158723955809123305890000007914248845118079411_);">
				<defs>
					<rect id="SVGID_00000036229445868510547790000005233592832725443765_" x="11" y="7.5" width="790" height="790"/>
				</defs>
				<clipPath id="SVGID_00000153674464929824908050000002031020489136395665_">
					<use xlink:href="#SVGID_00000036229445868510547790000005233592832725443765_"  style="overflow:visible;"/>
				</clipPath>
				<g style="clip-path:url(#SVGID_00000153674464929824908050000002031020489136395665_);">
					<g class="st5">
						<path d="M11,7.1c0,6.2,0,12.3,0,18.5c0,51.5,0,103,0,154.5s0,103,0,154.5c0,51.7,0,103.3,0,155c0,51.3,0,102.7,0,154
							c0,51.5,0,103,0,154.5h791c0-6.2,0-12.3,0-18.5c0-51.5,0-103,0-154.5s0-103,0-154.5c0-51.7,0-103.3,0-155
							c0-51.3,0-102.7,0-154c0-51.5,0-103,0-154.5H11z"/>
					</g>
					<rect x="2.2" y="6.1" class="st20" width="804.3" height="798.4"/>
					<rect x="2.2" y="6.1" class="st21" width="804.3" height="798.4"/>
					<rect x="2.2" y="6.1" class="st22" width="804.3" height="798.4"/>
					<rect x="2.2" y="6.1" class="st23" width="804.3" height="798.4"/>
				</g>
				<g style="clip-path:url(#SVGID_00000153674464929824908050000002031020489136395665_);">
					<defs>
						<rect id="SVGID_00000139263656035368012000000006762218610710832807_" x="-2" y="-10.8" width="831" height="831"/>
					</defs>
					<clipPath id="SVGID_00000004529425203906615740000013186690666412766122_">
						<use xlink:href="#SVGID_00000139263656035368012000000006762218610710832807_"  style="overflow:visible;"/>
					</clipPath>
					<g style="opacity:0.8;clip-path:url(#SVGID_00000004529425203906615740000013186690666412766122_);">
						<g>
							<polygon class="st25" points="413.5,-208 379.5,-208 413.5,404.6 447.5,-208 							"/>
							<polygon class="st25" points="413.5,1017.3 379.5,1017.3 413.5,404.6 447.5,1017.3 							"/>
						</g>
						<g>
							<polygon class="st25" points="571.9,-187.2 539,-196 413.5,404.6 604.8,-178.4 							"/>
							<polygon class="st25" points="255.1,996.4 222.2,987.6 413.5,404.6 288,1005.2 							"/>
						</g>
						<g>
							<polygon class="st25" points="719.5,-126.1 690,-143.1 413.5,404.6 749,-109.1 							"/>
							<polygon class="st25" points="107.5,935.4 78,918.4 413.5,404.6 137,952.4 							"/>
						</g>
						<g>
							<polygon class="st25" points="846.3,-28.9 822.2,-53 413.5,404.6 870.4,-4.9 							"/>
							<polygon class="st25" points="-19.3,838.2 -43.4,814.2 413.5,404.6 4.8,862.3 							"/>
						</g>
						<g>
							<polygon class="st25" points="943.7,97.7 926.6,68.2 413.5,404.6 960.7,127.2 							"/>
							<polygon class="st25" points="-116.7,711.6 -133.7,682.1 413.5,404.6 -99.6,741 							"/>
						</g>
						<g>
							<polygon class="st25" points="1005,245.2 996.1,212.3 413.5,404.6 1013.9,278.1 							"/>
							<polygon class="st25" points="-178,564.1 -186.9,531.2 413.5,404.6 -169.1,596.9 							"/>
						</g>
						<g>
							<polygon class="st25" points="1026.1,403.5 1026.1,369.5 413.5,404.6 1026.2,437.6 							"/>
							<polygon class="st25" points="-199.1,405.7 -199.2,371.7 413.5,404.6 -199.1,439.8 							"/>
						</g>
						<g>
							<polygon class="st25" points="1005.6,562 1014.3,529.1 413.5,404.6 996.8,594.9 							"/>
							<polygon class="st25" points="-178.6,247.3 -169.8,214.4 413.5,404.6 -187.3,280.2 							"/>
						</g>
						<g>
							<polygon class="st25" points="944.8,709.7 961.7,680.2 413.5,404.6 927.8,739.2 							"/>
							<polygon class="st25" points="-117.8,99.6 -100.8,70.1 413.5,404.6 -134.7,129.1 							"/>
						</g>
						<g>
							<polygon class="st25" points="847.8,836.7 871.8,812.5 413.5,404.6 823.8,860.8 							"/>
							<polygon class="st25" points="-20.8,-27.4 3.2,-51.5 413.5,404.6 -44.8,-3.3 							"/>
						</g>
						<g>
							<polygon class="st25" points="721.4,934.3 750.8,917.2 413.5,404.6 691.9,951.4 							"/>
							<polygon class="st25" points="105.6,-125 135.1,-142.1 413.5,404.6 76.2,-107.9 							"/>
						</g>
						<g>
							<polygon class="st25" points="574,995.9 606.8,986.9 413.5,404.6 541.1,1004.8 							"/>
							<polygon class="st25" points="253,-186.6 285.9,-195.5 413.5,404.6 220.2,-177.7 							"/>
						</g>
						<g>
							<polygon class="st25" points="574,995.9 606.8,986.9 413.5,404.6 541.1,1004.8 							"/>
							<polygon class="st25" points="253,-186.6 285.9,-195.5 413.5,404.6 220.2,-177.7 							"/>
						</g>
					</g>
				</g>
			</g>
		</g>
		<g>
			<defs>
				<path id="SVGID_00000023980656754207966630000010578814011773247162_" d="M801,402c39.4,125.9-142.7,395.3-395,395
					C183.8,796.7,11,587.2,11,402c0-105.2,55.7-183.5,81-219C161.6,85.3,302.7-29.8,406,7c62.3,22.2,51.2,78.4,135,180
					C664.6,336.8,775,319,801,402z"/>
			</defs>
			<clipPath id="SVGID_00000122722186260292159540000009084128826682337464_">
				<use xlink:href="#SVGID_00000023980656754207966630000010578814011773247162_"  style="overflow:visible;"/>
			</clipPath>
			<g style="clip-path:url(#SVGID_00000122722186260292159540000009084128826682337464_);">
				<defs>
					<rect id="SVGID_00000122688912165449046610000008960918398083393188_" x="11" y="7.5" width="790" height="790"/>
				</defs>
				<clipPath id="SVGID_00000173878361877717560750000009345259287630252178_">
					<use xlink:href="#SVGID_00000122688912165449046610000008960918398083393188_"  style="overflow:visible;"/>
				</clipPath>
				<g style="clip-path:url(#SVGID_00000173878361877717560750000009345259287630252178_);">
					<defs>
						<rect id="SVGID_00000059284894322000688230000006486354515911040898_" x="-2" y="-10.8" width="831" height="831"/>
					</defs>
					<clipPath id="SVGID_00000126316885087172141320000012851713485418542996_">
						<use xlink:href="#SVGID_00000059284894322000688230000006486354515911040898_"  style="overflow:visible;"/>
					</clipPath>
				</g>
			</g>
		</g>
	</g>
</g>
</svg>
