<?xml version="1.0" encoding="utf-8"?>
<!-- Generator: Adobe Illustrator 26.4.1, SVG Export Plug-In . SVG Version: 6.00 Build 0)  -->
<svg version="1.1" id="Capa_1" xmlns="http://www.w3.org/2000/svg" xmlns:xlink="http://www.w3.org/1999/xlink" x="0px" y="0px"
	 viewBox="0 0 222.9 263.5" style="enable-background:new 0 0 222.9 263.5;" xml:space="preserve">
<style type="text/css">
	.st0{opacity:0.6;}
	.st1{opacity:0.4;fill:#08BD62;}
	.st2{opacity:0.8;fill:#08BD62;}
	.st3{fill:#062133;}
	.st4{fill:#F7C69C;}
	.st5{fill:#CF2E34;}
	.st6{fill:#F2AE4D;}
	.st7{fill:#FFCE39;}
	.st8{fill:#EF947B;}
	.st9{fill:#4E3A90;}
	.st10{fill:#EF4242;}
</style>
<g class="st0">
	<path class="st1" d="M180.2,162.4c0,2.5-2,4.6-4.6,4.6s-4.6-2-4.6-4.6s2-4.6,4.6-4.6S180.2,159.9,180.2,162.4z"/>
	<circle class="st2" cx="175.7" cy="162.4" r="2.2"/>
</g>
<g class="st0">
	<path class="st1" d="M200.8,197.4c0,4.5-3.6,8.1-8.1,8.1s-8.1-3.6-8.1-8.1s3.6-8.1,8.1-8.1S200.8,192.9,200.8,197.4z"/>
	<circle class="st2" cx="192.7" cy="197.4" r="4"/>
</g>
<g>
	<rect x="139.7" y="94.4" class="st3" width="53" height="44"/>
	<path class="st4" d="M183.3,94.4H57.7v52.3c0,8.7,7,15.7,15.7,15.7H152c13.4,0,24.8-8.3,29.4-20h-67.9c-8.7,0-15.8-7.1-15.8-15.8
		v-0.3c0-8.7,7.1-15.8,15.8-15.8h70.2V94.7C183.7,94.5,183.5,94.4,183.3,94.4z"/>
	<path class="st4" d="M97.7,126.2v0.3c0,8.7,7.1,15.8,15.8,15.8h67.9c1.4-3.6,2.2-7.5,2.2-11.7v-20.3h-70.2
		C104.7,110.4,97.7,117.5,97.7,126.2z"/>
	<path class="st5" d="M197.7,78.4h-160c-4.4,0-8,3.6-8,8v0c0,4.4,3.6,8,8,8h160c4.4,0,8-3.6,8-8v0C205.7,81.9,202.1,78.4,197.7,78.4
		z"/>
	<rect x="39.7" y="94.4" class="st3" width="53" height="44"/>
	<rect x="39.7" y="94.4" width="53" height="6"/>
	<rect x="43.7" y="66.4" class="st6" width="155" height="12"/>
	<rect x="113.7" y="66.4" class="st7" width="85" height="12"/>
	<path class="st5" d="M136.2,7.4l-61,0c-16.3,0-29.5,13.2-29.5,29.5v29.5h120V36.9C165.7,20.6,152.5,7.4,136.2,7.4z"/>
	<path class="st8" d="M148.2,165.4L148.2,165.4c-11.9,0-21.5,9.6-21.5,21.5v36c0,6.4,5.1,11.5,11.5,11.5h20.7
		c6,0,10.8-4.9,10.8-10.8v-36.7C169.7,175,160,165.4,148.2,165.4z"/>
	<path class="st8" d="M174.2,209.4h-4.5v15h4.5c4.1,0,7.5-3.4,7.5-7.5v0C181.7,212.7,178.3,209.4,174.2,209.4z"/>
	<path class="st9" d="M147.2,162.4H82.3c-4.2,0-7.7,3.4-7.7,7.7v20.3h79v-21.5C153.7,165.3,150.7,162.4,147.2,162.4z"/>
	<path class="st10" d="M155.3,190.4H75.2c-3.6,0-6.5,2.9-6.5,6.5v2.2c0,2.9,2.4,5.3,5.3,5.3h81.3c2.9,0,5.3-2.4,5.3-5.3v-3.3
		C160.7,192.8,158.3,190.4,155.3,190.4z"/>
	<path class="st10" d="M154.7,204.4h-80v11.2c0,4.9,4,8.8,8.8,8.8H145c5.3,0,9.7-4.3,9.7-9.7V204.4z"/>
	<rect x="74.7" y="204.4" class="st5" width="80" height="7"/>
	<rect x="114.7" y="224.4" class="st10" width="30" height="29"/>
	<rect x="114.7" y="224.4" class="st5" width="30" height="10"/>
	<rect x="69.7" y="224.4" class="st10" width="30" height="29"/>
	<path class="st4" d="M61.2,165.4L61.2,165.4c-11.9,0-21.5,9.6-21.5,21.5v36c0,6.4,5.1,11.5,11.5,11.5h20.7c6,0,10.8-4.9,10.8-10.8
		v-36.7C82.7,175,73,165.4,61.2,165.4z"/>
	<rect x="134.7" y="162.4" class="st10" width="13" height="28"/>
	<rect x="134.7" y="162.4" class="st5" width="13" height="11"/>
	<rect x="105.7" y="162.4" class="st10" width="13" height="28"/>
	<rect x="105.7" y="162.4" class="st5" width="13" height="11"/>
	<path class="st10" d="M164.2,7.4l-28,0c-16.3,0-29.5,13.2-29.5,29.5v29.5h87V36.9C193.7,20.6,180.5,7.4,164.2,7.4z"/>
	<path class="st10" d="M197.7,78.4h-84c-4.4,0-8,3.6-8,8v0c0,4.4,3.6,8,8,8h84c4.4,0,8-3.6,8-8v0C205.7,81.9,202.1,78.4,197.7,78.4z
		"/>
	<path class="st3" d="M167.2,130.4L167.2,130.4c-1.9,0-3.5-1.6-3.5-3.5v-9c0-1.9,1.6-3.5,3.5-3.5l0,0c1.9,0,3.5,1.6,3.5,3.5v9
		C170.7,128.8,169.1,130.4,167.2,130.4z"/>
	<path class="st3" d="M133.2,130.4L133.2,130.4c-1.9,0-3.5-1.6-3.5-3.5v-9c0-1.9,1.6-3.5,3.5-3.5l0,0c1.9,0,3.5,1.6,3.5,3.5v9
		C136.7,128.8,135.1,130.4,133.2,130.4z"/>
	<path class="st4" d="M87.2,209.4h-4.5v15h4.5c4.1,0,7.5-3.4,7.5-7.5v0C94.7,212.7,91.3,209.4,87.2,209.4z"/>
	<path class="st8" d="M64.7,188.4h-13c-2.8,0-5,2.2-5,5l0,0c0,2.8,2.2,5,5,5h13c2.8,0,5-2.2,5-5l0,0
		C69.7,190.6,67.4,188.4,64.7,188.4z"/>
	<path class="st8" d="M64.7,202.4h-13c-2.8,0-5,2.2-5,5l0,0c0,2.8,2.2,5,5,5h13c2.8,0,5-2.2,5-5l0,0
		C69.7,204.6,67.4,202.4,64.7,202.4z"/>
	<circle class="st7" cx="154.2" cy="39.9" r="19.5"/>
</g>
<g class="st0">
	<path class="st1" d="M27.4,66.4c0,3.2-2.6,5.8-5.8,5.8s-5.8-2.6-5.8-5.8c0-3.2,2.6-5.8,5.8-5.8S27.4,63.2,27.4,66.4z"/>
	<circle class="st2" cx="21.6" cy="66.4" r="2.8"/>
</g>
<g class="st0">
	<path class="st1" d="M19.8,17c0,3.6-2.9,6.6-6.6,6.6S6.7,20.6,6.7,17s2.9-6.6,6.6-6.6S19.8,13.4,19.8,17z"/>
	<circle class="st2" cx="13.3" cy="17" r="3.2"/>
</g>
<g class="st0">
	<path class="st1" d="M46,157.8c0,9-7.3,16.4-16.4,16.4s-16.4-7.3-16.4-16.4c0-9,7.3-16.4,16.4-16.4S46,148.8,46,157.8z"/>
	<circle class="st2" cx="29.7" cy="157.8" r="8"/>
</g>
</svg>
