<?xml version="1.0" encoding="utf-8"?>
<!-- Generator: Adobe Illustrator 26.4.1, SVG Export Plug-In . SVG Version: 6.00 Build 0)  -->
<svg version="1.1" id="Capa_1" xmlns="http://www.w3.org/2000/svg" xmlns:xlink="http://www.w3.org/1999/xlink" x="0px" y="0px"
	 viewBox="0 0 222.9 263.5" style="enable-background:new 0 0 222.9 263.5;" xml:space="preserve">
<style type="text/css">
	.st0{opacity:0.6;}
	.st1{opacity:0.4;fill:#08BD62;}
	.st2{opacity:0.8;fill:#08BD62;}
	.st3{fill:#A6CD3C;}
	.st4{fill:#EF947B;}
	.st5{fill:#324A5A;}
	.st6{fill:#F7C69C;}
	.st7{fill:#F7AD94;}
	.st8{fill:#EF2163;}
	.st9{fill:#CEDEEA;}
	.st10{fill:#FFFFFF;}
	.st11{fill:#062133;}
	.st12{fill:#D52252;}
	.st13{fill:#0A3143;}
	.st14{fill:#22A850;}
</style>
<g class="st0">
	<path class="st1" d="M203.5,28.2c0,2.5-2,4.6-4.6,4.6s-4.6-2-4.6-4.6s2-4.6,4.6-4.6S203.5,25.7,203.5,28.2z"/>
	<circle class="st2" cx="198.9" cy="28.2" r="2.2"/>
</g>
<g class="st0">
	<path class="st1" d="M207.1,155.1c0,4.5-3.6,8.1-8.1,8.1s-8.1-3.6-8.1-8.1s3.6-8.1,8.1-8.1S207.1,150.6,207.1,155.1z"/>
	<circle class="st2" cx="198.9" cy="155.1" r="4"/>
</g>
<g class="st0">
	<path class="st1" d="M60.5,94.2c0,3.2-2.6,5.8-5.8,5.8s-5.8-2.6-5.8-5.8c0-3.2,2.6-5.8,5.8-5.8S60.5,91.1,60.5,94.2z"/>
	<circle class="st2" cx="54.7" cy="94.2" r="2.8"/>
</g>
<g class="st0">
	<path class="st1" d="M64,34.7c0,3.6-2.9,6.6-6.6,6.6c-3.6,0-6.6-2.9-6.6-6.6s2.9-6.6,6.6-6.6C61.1,28.2,64,31.1,64,34.7z"/>
	<circle class="st2" cx="57.4" cy="34.7" r="3.2"/>
</g>
<g>
	<g>
		<path d="M152.9,115.7L152.9,115.7c-17.1,0-31,13.9-31,31v31h62v-31C183.9,129.6,170.1,115.7,152.9,115.7z"/>
		<rect x="117.9" y="177.7" class="st3" width="69" height="13"/>
		<path class="st4" d="M184.9,190.7h-63v37.8c0,4.5,3.7,8.2,8.2,8.2h46.7c4.5,0,8.2-3.7,8.2-8.2V190.7z"/>
		<path class="st4" d="M189.4,205.7h-4.5v15h4.5c4.1,0,7.5-3.4,7.5-7.5v0C196.9,209.1,193.6,205.7,189.4,205.7z"/>
	</g>
	<path d="M149.9,150.7h-64V197c0,7.6,6.2,13.8,13.8,13.8h36.5c7.6,0,13.8-6.2,13.8-13.8V150.7z"/>
	<path class="st5" d="M57.9,115.7L57.9,115.7c-17.1,0-31,13.9-31,31v31h62v-31C88.9,129.6,75.1,115.7,57.9,115.7z"/>
	<rect x="22.9" y="177.7" class="st3" width="69" height="13"/>
	<rect x="115.9" y="202.7" width="22" height="43"/>
	<rect x="88.9" y="202.7" width="22" height="43"/>
	<path class="st6" d="M89.9,190.7h-63v37.8c0,4.5,3.7,8.2,8.2,8.2h46.7c4.5,0,8.2-3.7,8.2-8.2V190.7z"/>
	<rect x="26.9" y="190.7" class="st4" width="63" height="8.2"/>
	<path class="st6" d="M94.4,205.7h-4.5v15h4.5c4.1,0,7.5-3.4,7.5-7.5v0C101.9,209.1,98.6,205.7,94.4,205.7z"/>
	<path class="st4" d="M64.9,206.7h-30c-1.7,0-3,1.3-3,3l0,0c0,1.7,1.3,3,3,3h30c1.7,0,3-1.3,3-3l0,0
		C67.9,208.1,66.6,206.7,64.9,206.7z"/>
	<path class="st4" d="M64.9,214.7h-30c-1.7,0-3,1.3-3,3l0,0c0,1.7,1.3,3,3,3h30c1.7,0,3-1.3,3-3l0,0
		C67.9,216.1,66.6,214.7,64.9,214.7z"/>
	<path class="st7" d="M190.3,88.7H86.6c-5.3,0-9.7,4.3-9.7,9.7v42.7c0,5.3,4.3,9.7,9.7,9.7h103.7c5.3,0,9.7-4.3,9.7-9.7V98.4
		C199.9,93.1,195.6,88.7,190.3,88.7z"/>
	<path class="st6" d="M190.3,88.7H76.9v24.3c0,5.3,4.3,9.7,9.7,9.7h103.7c5.3,0,9.7-4.3,9.7-9.7V98.4
		C199.9,93.1,195.6,88.7,190.3,88.7z"/>
	<path class="st6" d="M173.3,17.7H86.6c-5.3,0-9.7,4.3-9.7,9.7v61.3h106V27.4C182.9,22.1,178.6,17.7,173.3,17.7z"/>
	<path class="st8" d="M163.9,26.7H145c-3.4,0-6.1,2.7-6.1,6.1v52.9h24.9c3.4,0,6.1-2.7,6.1-6.1V32.8
		C169.9,29.5,167.2,26.7,163.9,26.7z"/>
	<rect x="97.9" y="79.7" class="st9" width="20" height="10"/>
	<rect x="97.9" y="79.7" class="st10" width="20" height="7"/>
	<path class="st11" d="M126.4,40.7L126.4,40.7c-1.9,0-3.5,1.6-3.5,3.5v10c0,1.9,1.6,3.5,3.5,3.5h0c1.9,0,3.5-1.6,3.5-3.5v-10
		C129.9,42.3,128.4,40.7,126.4,40.7z"/>
	<path class="st11" d="M176.4,40.7L176.4,40.7c-1.9,0-3.5,1.6-3.5,3.5v10c0,1.9,1.6,3.5,3.5,3.5l0,0c1.9,0,3.5-1.6,3.5-3.5v-10
		C179.9,42.3,178.4,40.7,176.4,40.7z"/>
	<path class="st12" d="M138.9,68.7h-2.4c-3.6,0-6.6,2.9-6.6,6.6v10.4h9c0,0,0,0,0,0L138.9,68.7C138.9,68.8,138.9,68.7,138.9,68.7z"
		/>
	<path class="st12" d="M165.4,89.7h-71c-2.5,0-4.5,2-4.5,4.5v0c0,2.5,2,4.5,4.5,4.5h71c2.5,0,4.5-2,4.5-4.5v0
		C169.9,91.8,167.9,89.7,165.4,89.7z"/>
	<path class="st6" d="M76.9,58.7H60.4c-6.4,0-11.5,5.1-11.5,11.5v0c0,6.4,5.1,11.5,11.5,11.5h16.5V58.7z"/>
	<path class="st7" d="M187.8,58.7h-4.8v23h4.8c6.2,0,11.2-5,11.2-11.2v-0.6C198.9,63.8,193.9,58.7,187.8,58.7z"/>
	<path class="st13" d="M149.9,158.7h-28.6c-6.8,0-12.4,5.5-12.4,12.4v11.2c0,6.8,5.5,12.4,12.4,12.4h28.6V158.7z"/>
	<path class="st14" d="M144.4,158.3L144.4,158.3c-1.4-1.4-3.6-1.4-5,0l-0.1,0.1c-1.4,1.4-1.4,3.6,0,5h0c1.4,1.4,3.6,1.4,5,0l0.1-0.1
		C145.7,162,145.7,159.7,144.4,158.3z"/>
	<path class="st14" d="M144.4,173.8L144.4,173.8c-1.4-1.4-3.6-1.4-5,0l-0.1,0.1c-1.4,1.4-1.4,3.6,0,5h0c1.4,1.4,3.6,1.4,5,0l0.1-0.1
		C145.7,177.5,145.7,175.2,144.4,173.8z"/>
	<path class="st14" d="M144.4,189.3L144.4,189.3c-1.4-1.4-3.6-1.4-5,0l-0.1,0.1c-1.4,1.4-1.4,3.6,0,5h0c1.4,1.4,3.6,1.4,5,0l0.1-0.1
		C145.7,193,145.7,190.7,144.4,189.3z"/>
</g>
<g class="st0">
	<path class="st1" d="M95.3,146.7c0,9-7.3,16.4-16.4,16.4s-16.4-7.3-16.4-16.4c0-9,7.3-16.4,16.4-16.4S95.3,137.7,95.3,146.7z"/>
	<circle class="st2" cx="78.9" cy="146.7" r="8"/>
</g>
</svg>
