<?xml version="1.0" encoding="utf-8"?>
<!-- Generator: Adobe Illustrator 26.4.1, SVG Export Plug-In . SVG Version: 6.00 Build 0)  -->
<svg version="1.1" id="Capa_1" xmlns="http://www.w3.org/2000/svg" xmlns:xlink="http://www.w3.org/1999/xlink" x="0px" y="0px"
	 viewBox="0 0 189.5 163.1" style="enable-background:new 0 0 189.5 163.1;" xml:space="preserve">
<style type="text/css">
	.st0{fill:#22A850;}
	.st1{fill:#8CC639;}
	.st2{fill:#EF2163;}
	.st3{fill:#CEDEEA;}
	.st4{fill:#FFFFFF;}
	.st5{fill:#062133;}
	.st6{fill:#D52252;}
	.st7{fill:#AD2545;}
</style>
<g>
	<path class="st0" d="M156.6,86.1H53c-5.3,0-9.7,4.3-9.7,9.7v42.7c0,5.3,4.3,9.7,9.7,9.7h103.7c5.3,0,9.7-4.3,9.7-9.7V95.7
		C166.3,90.4,162,86.1,156.6,86.1z"/>
	<path class="st1" d="M156.6,86.1H43.3v24.3c0,5.3,4.3,9.7,9.7,9.7h103.7c5.3,0,9.7-4.3,9.7-9.7V95.7
		C166.3,90.4,162,86.1,156.6,86.1z"/>
	<path class="st1" d="M139.6,15.1H53c-5.3,0-9.7,4.3-9.7,9.7v61.3h106V24.7C149.3,19.4,145,15.1,139.6,15.1z"/>
	<path class="st2" d="M130.2,24.1h-18.8c-3.4,0-6.1,2.7-6.1,6.1v52.9h24.9c3.4,0,6.1-2.7,6.1-6.1V30.2
		C136.3,26.8,133.6,24.1,130.2,24.1z"/>
	<rect x="64.3" y="77.1" class="st3" width="20" height="10"/>
	<rect x="64.3" y="77.1" class="st4" width="20" height="7"/>
	<path class="st5" d="M92.8,38.1L92.8,38.1c-1.9,0-3.5,1.6-3.5,3.5v10c0,1.9,1.6,3.5,3.5,3.5h0c1.9,0,3.5-1.6,3.5-3.5v-10
		C96.3,39.6,94.7,38.1,92.8,38.1z"/>
	<path class="st5" d="M142.8,38.1L142.8,38.1c-1.9,0-3.5,1.6-3.5,3.5v10c0,1.9,1.6,3.5,3.5,3.5h0c1.9,0,3.5-1.6,3.5-3.5v-10
		C146.3,39.6,144.7,38.1,142.8,38.1z"/>
	<path class="st6" d="M105.3,66.1h-2.4c-3.6,0-6.6,2.9-6.6,6.6v10.4h9c0,0,0,0,0,0L105.3,66.1C105.3,66.1,105.3,66.1,105.3,66.1z"/>
	<path class="st6" d="M131.8,87.1h-71c-2.5,0-4.5,2-4.5,4.5v0c0,2.5,2,4.5,4.5,4.5h71c2.5,0,4.5-2,4.5-4.5v0
		C136.3,89.1,134.3,87.1,131.8,87.1z"/>
	<path class="st1" d="M43.3,56.1H26.8c-6.4,0-11.5,5.1-11.5,11.5v0c0,6.4,5.1,11.5,11.5,11.5h16.5V56.1z"/>
	<path class="st0" d="M154.1,56.1h-4.8v23h4.8c6.2,0,11.2-5,11.2-11.2v-0.6C165.3,61.1,160.3,56.1,154.1,56.1z"/>
	<path class="st7" d="M72.7,29.7L72.7,29.7c-4.7-4.7-12.3-4.7-17,0l-0.1,0.1c-4.7,4.7-4.7,12.3,0,17l0,0c4.7,4.7,12.3,4.7,17,0
		l0.1-0.1C77.4,42,77.4,34.4,72.7,29.7z"/>
	<path class="st7" d="M160.7,109.7L160.7,109.7c-1.4-1.4-3.6-1.4-5,0l-0.1,0.1c-1.4,1.4-1.4,3.6,0,5v0c1.4,1.4,3.6,1.4,5,0l0.1-0.1
		C162.1,113.3,162.1,111,160.7,109.7z"/>
</g>
</svg>
