<?xml version="1.0" encoding="utf-8"?>
<!-- Generator: Adobe Illustrator 26.4.1, SVG Export Plug-In . SVG Version: 6.00 Build 0)  -->
<svg version="1.1" id="Capa_1" xmlns="http://www.w3.org/2000/svg" xmlns:xlink="http://www.w3.org/1999/xlink" x="0px" y="0px"
	 viewBox="0 0 222.9 263.5" style="enable-background:new 0 0 222.9 263.5;" xml:space="preserve">
<style type="text/css">
	.st0{opacity:0.6;}
	.st1{opacity:0.4;fill:#08BD62;}
	.st2{opacity:0.8;fill:#08BD62;}
	.st3{fill:#062133;}
	.st4{fill:#8CC639;}
	.st5{fill:#CF2E34;}
	.st6{fill:#AD2545;}
	.st7{fill:#F2AE4D;}
	.st8{fill:#FFCE39;}
	.st9{fill:#22A850;}
	.st10{fill:#4E3A90;}
	.st11{fill:#EF4242;}
	.st12{fill:#C6DE52;}
</style>
<g class="st0">
	<path class="st1" d="M206.4,64c0,2.5-2,4.6-4.6,4.6s-4.6-2-4.6-4.6c0-2.5,2-4.6,4.6-4.6S206.4,61.4,206.4,64z"/>
	<circle class="st2" cx="201.8" cy="64" r="2.2"/>
</g>
<g class="st0">
	<path class="st1" d="M201.8,147c0,4.5-3.6,8.1-8.1,8.1s-8.1-3.6-8.1-8.1s3.6-8.1,8.1-8.1S201.8,142.5,201.8,147z"/>
	<circle class="st2" cx="193.7" cy="147" r="4"/>
</g>
<g>
	<rect x="139.7" y="99" class="st3" width="53" height="44"/>
	<path class="st4" d="M183.3,99H57.7v52.3c0,8.7,7,15.7,15.7,15.7H152c13.4,0,24.8-8.3,29.4-20h-67.9c-8.7,0-15.8-7.1-15.8-15.8
		v-0.3c0-8.7,7.1-15.8,15.8-15.8h70.2V99.3C183.7,99.1,183.5,99,183.3,99z"/>
	<path class="st4" d="M97.7,130.8v0.3c0,8.7,7.1,15.8,15.8,15.8h67.9c1.4-3.6,2.2-7.5,2.2-11.7V115h-70.2
		C104.7,115,97.7,122,97.7,130.8z"/>
	<path class="st5" d="M197.7,83h-160c-4.4,0-8,3.6-8,8v0c0,4.4,3.6,8,8,8h160c4.4,0,8-3.6,8-8v0C205.7,86.5,202.1,83,197.7,83z"/>
	<path class="st6" d="M107.5,136.7L107.5,136.7c-5.7-5.7-14.9-5.7-20.6,0l-0.1,0.1c-5.7,5.7-5.7,14.9,0,20.6l0,0
		c5.7,5.7,14.9,5.7,20.6,0l0.1-0.1C113.1,151.6,113.1,142.4,107.5,136.7z"/>
	<path class="st6" d="M176.9,103.3L176.9,103.3c-2-2-5.4-2-7.4,0l0,0c-2,2-2,5.4,0,7.4l0,0c2,2,5.4,2,7.4,0l0,0
		C178.9,108.7,178.9,105.4,176.9,103.3z"/>
	<rect x="39.7" y="99" class="st3" width="53" height="44"/>
	<rect x="39.7" y="99" width="53" height="6"/>
	<rect x="43.7" y="71" class="st7" width="155" height="12"/>
	<rect x="113.7" y="71" class="st8" width="85" height="12"/>
	<path class="st5" d="M136.2,12h-61c-16.3,0-29.5,13.2-29.5,29.5V71h120V41.5C165.7,25.2,152.5,12,136.2,12z"/>
	<path class="st9" d="M148.2,170L148.2,170c-11.9,0-21.5,9.6-21.5,21.5v36c0,6.4,5.1,11.5,11.5,11.5h20.7c6,0,10.8-4.9,10.8-10.8
		v-36.7C169.7,179.6,160,170,148.2,170z"/>
	<path class="st9" d="M174.2,214h-4.5v15h4.5c4.1,0,7.5-3.4,7.5-7.5v0C181.7,217.3,178.3,214,174.2,214z"/>
	<path class="st10" d="M147.2,167H82.3c-4.2,0-7.7,3.4-7.7,7.7V195h79v-21.5C153.7,169.9,150.7,167,147.2,167z"/>
	<path class="st11" d="M155.3,195H75.2c-3.6,0-6.5,2.9-6.5,6.5v2.2c0,2.9,2.4,5.3,5.3,5.3h81.3c2.9,0,5.3-2.4,5.3-5.3v-3.3
		C160.7,197.3,158.3,195,155.3,195z"/>
	<path class="st11" d="M154.7,209h-80v11.2c0,4.9,4,8.8,8.8,8.8H145c5.3,0,9.7-4.3,9.7-9.7V209z"/>
	<rect x="74.7" y="209" class="st5" width="80" height="7"/>
	<rect x="114.7" y="229" class="st11" width="30" height="29"/>
	<rect x="114.7" y="229" class="st5" width="30" height="10"/>
	<rect x="69.7" y="229" class="st11" width="30" height="29"/>
	<path class="st12" d="M61.2,170L61.2,170c-11.9,0-21.5,9.6-21.5,21.5v36c0,6.4,5.1,11.5,11.5,11.5h20.7c6,0,10.8-4.9,10.8-10.8
		v-36.7C82.7,179.6,73,170,61.2,170z"/>
	<rect x="134.7" y="167" class="st11" width="13" height="28"/>
	<rect x="134.7" y="167" class="st5" width="13" height="11"/>
	<rect x="105.7" y="167" class="st11" width="13" height="28"/>
	<rect x="105.7" y="167" class="st5" width="13" height="11"/>
	<path class="st11" d="M164.2,12h-28c-16.3,0-29.5,13.2-29.5,29.5V71h87V41.5C193.7,25.2,180.5,12,164.2,12z"/>
	<path class="st11" d="M197.7,83h-84c-4.4,0-8,3.6-8,8v0c0,4.4,3.6,8,8,8h84c4.4,0,8-3.6,8-8v0C205.7,86.5,202.1,83,197.7,83z"/>
	<path class="st3" d="M167.2,135L167.2,135c-1.9,0-3.5-1.6-3.5-3.5v-9c0-1.9,1.6-3.5,3.5-3.5l0,0c1.9,0,3.5,1.6,3.5,3.5v9
		C170.7,133.4,169.1,135,167.2,135z"/>
	<path class="st3" d="M133.2,135L133.2,135c-1.9,0-3.5-1.6-3.5-3.5v-9c0-1.9,1.6-3.5,3.5-3.5l0,0c1.9,0,3.5,1.6,3.5,3.5v9
		C136.7,133.4,135.1,135,133.2,135z"/>
	<path class="st12" d="M87.2,214h-4.5v15h4.5c4.1,0,7.5-3.4,7.5-7.5v0C94.7,217.3,91.3,214,87.2,214z"/>
	<path class="st4" d="M64.7,193h-13c-2.8,0-5,2.2-5,5l0,0c0,2.8,2.2,5,5,5h13c2.8,0,5-2.2,5-5l0,0C69.7,195.2,67.4,193,64.7,193z"/>
	<path class="st4" d="M64.7,207h-13c-2.8,0-5,2.2-5,5l0,0c0,2.8,2.2,5,5,5h13c2.8,0,5-2.2,5-5l0,0C69.7,209.2,67.4,207,64.7,207z"/>
	<circle class="st8" cx="154.2" cy="44.5" r="19.5"/>
	<path class="st6" d="M73.9,225.3L73.9,225.3c-2-2-5.4-2-7.4,0l0,0c-2,2-2,5.4,0,7.4l0,0c2,2,5.4,2,7.4,0l0,0
		C75.9,230.7,75.9,227.4,73.9,225.3z"/>
</g>
<g class="st0">
	<path class="st1" d="M87.5,10.6c0,3.2-2.6,5.8-5.8,5.8S76,13.8,76,10.6s2.6-5.8,5.8-5.8S87.5,7.4,87.5,10.6z"/>
	<circle class="st2" cx="81.8" cy="10.6" r="2.8"/>
</g>
<g class="st0">
	<path class="st1" d="M35.6,25c0,3.6-2.9,6.6-6.6,6.6s-6.6-2.9-6.6-6.6s2.9-6.6,6.6-6.6S35.6,21.3,35.6,25z"/>
	<circle class="st2" cx="29.1" cy="25" r="3.2"/>
</g>
<g class="st0">
	<path class="st1" d="M48.7,191.2c0,9-7.3,16.4-16.4,16.4s-16.4-7.3-16.4-16.4c0-9,7.3-16.4,16.4-16.4S48.7,182.2,48.7,191.2z"/>
	<circle class="st2" cx="32.3" cy="191.2" r="8"/>
</g>
</svg>
