<?xml version="1.0" encoding="utf-8"?>
<!-- Generator: Adobe Illustrator 26.4.1, SVG Export Plug-In . SVG Version: 6.00 Build 0)  -->
<svg version="1.1" id="Capa_1" xmlns="http://www.w3.org/2000/svg" xmlns:xlink="http://www.w3.org/1999/xlink" x="0px" y="0px"
	 viewBox="0 0 222.9 263.5" style="enable-background:new 0 0 222.9 263.5;" xml:space="preserve">
<style type="text/css">
	.st0{opacity:0.6;}
	.st1{opacity:0.4;fill:#08BD62;}
	.st2{opacity:0.8;fill:#08BD62;}
	.st3{fill:#A6CD3C;}
	.st4{fill:#8CC639;}
	.st5{fill:#324A5A;}
	.st6{fill:#C6DE52;}
	.st7{fill:#22A850;}
	.st8{fill:#EF2163;}
	.st9{fill:#CEDEEA;}
	.st10{fill:#FFFFFF;}
	.st11{fill:#062133;}
	.st12{fill:#D52252;}
	.st13{fill:#AD2545;}
	.st14{fill:#0A3143;}
</style>
<g class="st0">
	<path class="st1" d="M217.7,38.6c0,2.5-2,4.6-4.6,4.6c-2.5,0-4.6-2-4.6-4.6c0-2.5,2-4.6,4.6-4.6C215.7,34,217.7,36.1,217.7,38.6z"
		/>
	<circle class="st2" cx="213.2" cy="38.6" r="2.2"/>
</g>
<g class="st0">
	<path class="st1" d="M213.2,100.1c0,4.5-3.6,8.1-8.1,8.1s-8.1-3.6-8.1-8.1s3.6-8.1,8.1-8.1S213.2,95.6,213.2,100.1z"/>
	<circle class="st2" cx="205" cy="100.1" r="4"/>
</g>
<g class="st0">
	<path class="st1" d="M87.5,10.6c0,3.2-2.6,5.8-5.8,5.8S76,13.8,76,10.6s2.6-5.8,5.8-5.8S87.5,7.4,87.5,10.6z"/>
	<circle class="st2" cx="81.8" cy="10.6" r="2.8"/>
</g>
<g class="st0">
	<path class="st1" d="M21.1,75.7c0,3.6-2.9,6.6-6.6,6.6S8,79.3,8,75.7c0-3.6,2.9-6.6,6.6-6.6S21.1,72.1,21.1,75.7z"/>
	<circle class="st2" cx="14.5" cy="75.7" r="3.2"/>
</g>
<g>
	<g>
		<path d="M155.2,129.1L155.2,129.1c-17.1,0-31,13.9-31,31v31h62v-31C186.2,143,172.3,129.1,155.2,129.1z"/>
		<rect x="120.2" y="191.1" class="st3" width="69" height="13"/>
		<path class="st4" d="M187.2,204.1h-63V242c0,4.5,3.7,8.2,8.2,8.2H179c4.5,0,8.2-3.7,8.2-8.2V204.1z"/>
		<rect x="124.2" y="204.1" class="st4" width="63" height="8.2"/>
		<path class="st4" d="M191.7,219.1h-4.5v15h4.5c4.1,0,7.5-3.4,7.5-7.5v0C199.2,222.5,195.9,219.1,191.7,219.1z"/>
		<path class="st4" d="M162.2,220.1h-30c-1.7,0-3,1.3-3,3v0c0,1.7,1.3,3,3,3h30c1.7,0,3-1.3,3-3v0
			C165.2,221.5,163.9,220.1,162.2,220.1z"/>
		<path class="st4" d="M162.2,228.1h-30c-1.7,0-3,1.3-3,3v0c0,1.7,1.3,3,3,3h30c1.7,0,3-1.3,3-3v0
			C165.2,229.5,163.9,228.1,162.2,228.1z"/>
	</g>
	<path d="M152.2,164.1h-64v46.2c0,7.6,6.2,13.8,13.8,13.8h36.5c7.6,0,13.8-6.2,13.8-13.8V164.1z"/>
	<path class="st5" d="M60.2,129.1L60.2,129.1c-17.1,0-31,13.9-31,31v31h62v-31C91.2,143,77.3,129.1,60.2,129.1z"/>
	<rect x="25.2" y="191.1" class="st3" width="69" height="13"/>
	<rect x="118.2" y="216.1" width="22" height="43"/>
	<rect x="91.2" y="216.1" width="22" height="43"/>
	<path class="st6" d="M92.2,204.1h-63V242c0,4.5,3.7,8.2,8.2,8.2H84c4.5,0,8.2-3.7,8.2-8.2V204.1z"/>
	<rect x="29.2" y="204.1" class="st4" width="63" height="8.2"/>
	<path class="st6" d="M96.7,219.1h-4.5v15h4.5c4.1,0,7.5-3.4,7.5-7.5v0C104.2,222.5,100.9,219.1,96.7,219.1z"/>
	<path class="st4" d="M67.2,220.1h-30c-1.7,0-3,1.3-3,3v0c0,1.7,1.3,3,3,3h30c1.7,0,3-1.3,3-3v0C70.2,221.5,68.9,220.1,67.2,220.1z"
		/>
	<path class="st4" d="M67.2,228.1h-30c-1.7,0-3,1.3-3,3v0c0,1.7,1.3,3,3,3h30c1.7,0,3-1.3,3-3v0C70.2,229.5,68.9,228.1,67.2,228.1z"
		/>
	<path class="st7" d="M192.5,102.1H88.9c-5.3,0-9.7,4.3-9.7,9.7v42.7c0,5.3,4.3,9.7,9.7,9.7h103.7c5.3,0,9.7-4.3,9.7-9.7v-42.7
		C202.2,106.4,197.9,102.1,192.5,102.1z"/>
	<path class="st4" d="M192.5,102.1H79.2v24.3c0,5.3,4.3,9.7,9.7,9.7h103.7c5.3,0,9.7-4.3,9.7-9.7v-14.7
		C202.2,106.4,197.9,102.1,192.5,102.1z"/>
	<path class="st4" d="M175.5,31.1H88.9c-5.3,0-9.7,4.3-9.7,9.7v61.3h106V40.8C185.2,35.4,180.9,31.1,175.5,31.1z"/>
	<path class="st8" d="M166.1,40.1h-18.8c-3.4,0-6.1,2.7-6.1,6.1v52.9h24.9c3.4,0,6.1-2.7,6.1-6.1V46.2
		C172.2,42.8,169.5,40.1,166.1,40.1z"/>
	<rect x="100.2" y="93.1" class="st9" width="20" height="10"/>
	<rect x="100.2" y="93.1" class="st10" width="20" height="7"/>
	<path class="st11" d="M128.7,54.1L128.7,54.1c-1.9,0-3.5,1.6-3.5,3.5v10c0,1.9,1.6,3.5,3.5,3.5l0,0c1.9,0,3.5-1.6,3.5-3.5v-10
		C132.2,55.7,130.6,54.1,128.7,54.1z"/>
	<path class="st11" d="M178.7,54.1L178.7,54.1c-1.9,0-3.5,1.6-3.5,3.5v10c0,1.9,1.6,3.5,3.5,3.5l0,0c1.9,0,3.5-1.6,3.5-3.5v-10
		C182.2,55.7,180.6,54.1,178.7,54.1z"/>
	<path class="st12" d="M141.2,82.1h-2.4c-3.6,0-6.6,2.9-6.6,6.6v10.4h9c0,0,0,0,0,0L141.2,82.1C141.2,82.1,141.2,82.1,141.2,82.1z"
		/>
	<path class="st12" d="M167.7,103.1h-71c-2.5,0-4.5,2-4.5,4.5v0c0,2.5,2,4.5,4.5,4.5h71c2.5,0,4.5-2,4.5-4.5v0
		C172.2,105.1,170.2,103.1,167.7,103.1z"/>
	<path class="st4" d="M79.2,72.1H62.7c-6.4,0-11.5,5.1-11.5,11.5v0c0,6.4,5.1,11.5,11.5,11.5h16.5V72.1z"/>
	<path class="st7" d="M190,72.1h-4.8v23h4.8c6.2,0,11.2-5,11.2-11.2v-0.6C201.2,77.1,196.2,72.1,190,72.1z"/>
	<path class="st13" d="M108.6,45.7L108.6,45.7c-4.7-4.7-12.3-4.7-17,0l-0.1,0.1c-4.7,4.7-4.7,12.3,0,17l0,0c4.7,4.7,12.3,4.7,17,0
		l0.1-0.1C113.3,58,113.3,50.4,108.6,45.7z"/>
	<path class="st13" d="M196.6,125.7L196.6,125.7c-1.4-1.4-3.6-1.4-5,0l-0.1,0.1c-1.4,1.4-1.4,3.6,0,5v0c1.4,1.4,3.6,1.4,5,0l0.1-0.1
		C198,129.3,198,127.1,196.6,125.7z"/>
	<path class="st14" d="M152.2,172.1h-28.6c-6.8,0-12.4,5.5-12.4,12.4v11.2c0,6.8,5.5,12.4,12.4,12.4h28.6V172.1z"/>
	<path class="st7" d="M146.6,171.7L146.6,171.7c-1.4-1.4-3.6-1.4-5,0l-0.1,0.1c-1.4,1.4-1.4,3.6,0,5v0c1.4,1.4,3.6,1.4,5,0l0.1-0.1
		C148,175.3,148,173.1,146.6,171.7z"/>
	<path class="st7" d="M146.6,187.2L146.6,187.2c-1.4-1.4-3.6-1.4-5,0l-0.1,0.1c-1.4,1.4-1.4,3.6,0,5v0c1.4,1.4,3.6,1.4,5,0l0.1-0.1
		C148,190.8,148,188.6,146.6,187.2z"/>
	<path class="st7" d="M146.6,202.7L146.6,202.7c-1.4-1.4-3.6-1.4-5,0l-0.1,0.1c-1.4,1.4-1.4,3.6,0,5v0c1.4,1.4,3.6,1.4,5,0l0.1-0.1
		C148,206.3,148,204.1,146.6,202.7z"/>
</g>
<g class="st0">
	<path class="st1" d="M53.5,144.6c0,9-7.3,16.4-16.4,16.4s-16.4-7.3-16.4-16.4c0-9,7.3-16.4,16.4-16.4S53.5,135.6,53.5,144.6z"/>
	<circle class="st2" cx="37.1" cy="144.6" r="8"/>
</g>
</svg>
