<?xml version="1.0" encoding="utf-8"?>
<!-- Generator: Adobe Illustrator 26.4.1, SVG Export Plug-In . SVG Version: 6.00 Build 0)  -->
<svg version="1.1" id="Capa_1" xmlns="http://www.w3.org/2000/svg" xmlns:xlink="http://www.w3.org/1999/xlink" x="0px" y="0px"
	 viewBox="0 0 512 512" style="enable-background:new 0 0 512 512;" xml:space="preserve">
<style type="text/css">
	.st0{opacity:0.6;}
	.st1{opacity:0.2;fill:#08BD62;}
	.st2{opacity:0.4;fill:#08BD62;}
	.st3{opacity:0.8;fill:#08BD62;}
	.st4{fill:#DDDDDD;}
</style>
<g class="st0">
	<path class="st1" d="M493,256.5C493,387.1,387.1,493,256.5,493S20,387.1,20,256.5S125.9,20,256.5,20S493,125.9,493,256.5z"/>
	<path class="st2" d="M463.1,256.5c0,114.1-92.5,206.6-206.6,206.6S49.9,370.6,49.9,256.5S142.4,49.9,256.5,49.9
		S463.1,142.4,463.1,256.5z"/>
	<circle class="st3" cx="256.5" cy="256.5" r="155.5"/>
</g>
<g>
	<g>
		<path class="st4" d="M258,353.3c-2.8,0-5.4-1-7.5-2.8c-7.8-6.8-15.4-13.3-22-18.9l0,0c-19.5-16.6-36.3-31-48.1-45.1
			c-13.1-15.8-19.2-30.8-19.2-47.2c0-15.9,5.5-30.6,15.4-41.3c10-10.9,23.8-16.9,38.7-16.9c11.2,0,21.4,3.5,30.4,10.5
			c4.5,3.5,8.7,7.8,12.3,12.8c3.6-5,7.8-9.3,12.3-12.8c9-7,19.2-10.5,30.4-10.5c15,0,28.7,6,38.7,16.9c9.9,10.7,15.4,25.4,15.4,41.3
			c0,16.4-6.1,31.4-19.2,47.2c-11.7,14.1-28.6,28.5-48.1,45.1c-6.7,5.7-14.2,12.1-22.1,19C263.5,352.3,260.8,353.3,258,353.3z
			 M215.3,192.4c-11.7,0-22.5,4.7-30.4,13.2c-8,8.6-12.4,20.6-12.4,33.6c0,13.8,5.1,26.1,16.6,39.9c11.1,13.4,27.6,27.4,46.7,43.7
			l0,0c6.7,5.7,14.2,12.1,22.1,19c7.9-6.9,15.5-13.4,22.2-19.1c19.1-16.3,35.6-30.3,46.7-43.7c11.5-13.8,16.6-26.2,16.6-39.9
			c0-13.1-4.4-25-12.4-33.6c-7.8-8.5-18.6-13.2-30.4-13.2c-8.6,0-16.5,2.7-23.5,8.1c-6.2,4.8-10.5,10.9-13.1,15.1
			c-1.3,2.2-3.6,3.5-6.1,3.5c-2.5,0-4.8-1.3-6.1-3.5c-2.5-4.3-6.9-10.3-13.1-15.1C231.8,195.1,223.9,192.4,215.3,192.4z"/>
	</g>
</g>
</svg>
