<?xml version="1.0" encoding="utf-8"?>
<!-- Generator: Adobe Illustrator 26.4.1, SVG Export Plug-In . SVG Version: 6.00 Build 0)  -->
<svg version="1.1" id="Capa_1" xmlns="http://www.w3.org/2000/svg" xmlns:xlink="http://www.w3.org/1999/xlink" x="0px" y="0px"
	 viewBox="0 0 448 440" style="enable-background:new 0 0 448 440;" xml:space="preserve">
<style type="text/css">
	.st0{fill:#662C8E;}
	.st1{fill:#4A216C;}
	.st2{fill:#FF9D2B;}
	.st3{fill:#F7BD9C;}
	.st4{fill:#A6CD3C;}
	.st5{opacity:0.6;}
	.st6{opacity:0.4;fill:#08BD62;}
	.st7{opacity:0.8;fill:#08BD62;}
</style>
<g>
	<g>
		<rect x="70.6" y="347.5" class="st0" width="57.2" height="82.8"/>
		<rect x="234.3" y="347.5" class="st1" width="57.2" height="82.8"/>
		<path class="st0" d="M210.2,43.8L210.2,43.8c-77.1,0-139.6,62.5-139.6,139.6v134.8c0,47.8,38.7,86.5,86.5,86.5h95
			c51.2,0,92.7-41.5,92.7-92.7V178.3C344.8,104,284.5,43.8,210.2,43.8z"/>
		<path class="st1" d="M311.5,104.9h-83c-41.5,0-75.1,33.6-75.1,75.1v138.9c0,3.8,3.1,6.9,6.9,6.9h160.1c3.7,0,6.6-3,6.6-6.6V120.4
			C327,111.9,320.1,104.9,311.5,104.9z"/>
		<path class="st2" d="M372.4,104.9H224.7c-39.4,0-71.3,31.9-71.3,71.3v31.3h138.5c44.5,0,80.5-36,80.5-80.5V104.9z"/>
		<path class="st3" d="M285.6,207.5H153.4v105.1c0,7.3,5.9,13.2,13.2,13.2h118.9V207.5z"/>
		<path d="M396.5,280.5H141.1c-7.4,0-13.4,6-13.4,13.4v46.3c0,7.4,6,13.4,13.4,13.4h255.4c7.4,0,13.4-6,13.4-13.4v-46.3
			C409.9,286.4,403.9,280.5,396.5,280.5z"/>
		<rect x="388.2" y="304.1" width="53.3" height="25.6"/>
		<path d="M357,265.6l-27.3,17.6c-1.2,0.8-1.6,2.5-0.8,3.7l11,17c0.8,1.2,2.5,1.6,3.7,0.8l27.3-17.6c1.2-0.8,1.6-2.5,0.8-3.7l-11-17
			C359.9,265.1,358.2,264.8,357,265.6z"/>
		<path class="st3" d="M315.2,304.1L315.2,304.1c-21.8,0-39.5,17.7-39.5,39.5v0c0,21.8,17.7,39.5,39.5,39.5h0
			c21.8,0,39.5-17.7,39.5-39.5v0C354.6,321.8,337,304.1,315.2,304.1z"/>
		<path class="st1" d="M70.5,294.2l-28.3,26.1c-14.8,13.7-15.8,36.7-2.1,51.6l0,0c13.7,14.8,36.7,15.8,51.6,2.1l28.3-26.1
			c14.8-13.7,15.8-36.7,2.1-51.6l0,0C108.4,281.5,85.3,280.6,70.5,294.2z"/>
		<path d="M119.8,290.3l-50.1,46.2c-14.8,13.7-15.8,36.7-2.1,51.6l0,0c13.7,14.8,36.7,15.8,51.6,2.1l50.1-46.2
			c14.8-13.7,15.8-36.7,2.1-51.6l0,0C157.7,277.6,134.6,276.6,119.8,290.3z"/>
		<path d="M185,229.2L185,229.2c-5.4,0-9.9,4.4-9.9,9.9v15.8c0,5.4,4.4,9.9,9.9,9.9h0c5.4,0,9.9-4.4,9.9-9.9V239
			C194.8,233.6,190.4,229.2,185,229.2z"/>
		<path class="st3" d="M163.1,308.1H88.3v35.5h75.1c2.1,0,3.8-1.7,3.8-3.8v-27.6C167.2,309.9,165.4,308.1,163.1,308.1z"/>
		<path class="st3" d="M145.5,343.6H88.3V387h47.6c5.3,0,9.7-4.3,9.7-9.7V343.6z"/>
		<path class="st0" d="M88.3,308.1H74.4c-23.9,0-43.3,19.4-43.3,43.3v0c0,19.7,15.9,35.6,35.6,35.6h21.6V308.1z"/>
		<path d="M261.9,229.2L261.9,229.2c-5.4,0-9.9,4.4-9.9,9.9v15.8c0,5.4,4.4,9.9,9.9,9.9h0c5.4,0,9.9-4.4,9.9-9.9V239
			C271.8,233.6,267.4,229.2,261.9,229.2z"/>
		<path class="st4" d="M256,296.2h-69c-4.4,0-7.9,3.5-7.9,7.9v0c0,4.4,3.5,7.9,7.9,7.9h69c4.4,0,7.9-3.5,7.9-7.9v0
			C263.9,299.8,260.4,296.2,256,296.2z"/>
	</g>
</g>
<g class="st5">
	<path class="st6" d="M415.3,19c0,7.4-6,13.3-13.3,13.3s-13.3-6-13.3-13.3s6-13.3,13.3-13.3S415.3,11.6,415.3,19z"/>
	<circle class="st7" cx="401.9" cy="19" r="6.6"/>
</g>
<g class="st5">
	<path class="st6" d="M58.9,51.3C58.9,65.5,47.4,77,33.3,77S7.6,65.5,7.6,51.3s11.5-25.7,25.7-25.7S58.9,37.2,58.9,51.3z"/>
	<circle class="st7" cx="33.3" cy="51.3" r="12.6"/>
</g>
<g class="st5">
	<path class="st6" d="M420.9,224.3c0,14.2-11.5,25.7-25.7,25.7s-25.7-11.5-25.7-25.7s11.5-25.7,25.7-25.7S420.9,210.2,420.9,224.3z"
		/>
	<circle class="st7" cx="395.3" cy="224.3" r="12.6"/>
</g>
<g class="st5">
	<path class="st6" d="M202.6,77.3c0,9.6-7.8,17.3-17.3,17.3c-9.6,0-17.3-7.8-17.3-17.3S175.7,60,185.3,60
		C194.8,60,202.6,67.8,202.6,77.3z"/>
	<circle class="st7" cx="185.3" cy="77.3" r="8.5"/>
</g>
<g class="st5">
	<path class="st6" d="M46.3,422c0,7.4-6,13.3-13.3,13.3s-13.3-6-13.3-13.3c0-7.4,6-13.3,13.3-13.3S46.3,414.6,46.3,422z"/>
	<circle class="st7" cx="32.9" cy="422" r="6.6"/>
</g>
</svg>
