<?xml version="1.0" encoding="utf-8"?>
<!-- Generator: Adobe Illustrator 26.4.1, SVG Export Plug-In . SVG Version: 6.00 Build 0)  -->
<svg version="1.1" id="Capa_1" xmlns="http://www.w3.org/2000/svg" xmlns:xlink="http://www.w3.org/1999/xlink" x="0px" y="0px"
	 viewBox="0 0 827.1 566" style="enable-background:new 0 0 827.1 566;" xml:space="preserve">
<style type="text/css">
	.st0{opacity:0.6;}
	.st1{opacity:0.4;fill:#08BD62;}
	.st2{opacity:0.8;fill:#08BD62;}
	.st3{fill:#889DB0;}
	.st4{fill:#FFFFFF;}
	.st5{fill:#AD0D31;}
	.st6{fill:#FF3C80;}
</style>
<g class="st0">
	<path class="st1" d="M594.5,39c0,14.5-11.7,26.2-26.2,26.2C553.7,65.2,542,53.5,542,39s11.7-26.2,26.2-26.2
		C582.7,12.8,594.5,24.5,594.5,39z"/>
	<circle class="st2" cx="568.2" cy="39" r="12.9"/>
</g>
<g>
	<path class="st3" d="M731.5,552.2H151.9c-37.6,0-68.4-30.8-68.4-68.4V123.1c0-37.6,30.8-68.4,68.4-68.4h579.6
		c37.6,0,68.4,30.8,68.4,68.4v360.7C799.9,521.5,769.1,552.2,731.5,552.2z"/>
	<path class="st4" d="M469.4,497H195.1c-28.6,0-51.9-23.4-51.9-51.9V161.9c0-28.6,23.4-51.9,51.9-51.9h274.3
		c28.6,0,51.9,23.4,51.9,51.9v283.1C521.3,473.6,497.9,497,469.4,497z"/>
	<g>
		<g>
			<g>
				<path class="st5" d="M391.1,432.9H273.4c-6,0-10.8-4.9-10.8-10.8V204.9c0-6,4.9-10.8,10.8-10.8h117.6c6,0,10.8,4.9,10.8,10.8
					V422C401.9,428,397.1,432.9,391.1,432.9z"/>
			</g>
			<g>
				<path class="st5" d="M451.7,254.6v117.6c0,6-4.9,10.8-10.8,10.8H223.7c-6,0-10.8-4.9-10.8-10.8V254.6c0-6,4.9-10.8,10.8-10.8
					h217.1C446.8,243.8,451.7,248.7,451.7,254.6z"/>
			</g>
		</g>
	</g>
	<g>
		<path class="st6" d="M351.3,432.9H233.7c-6,0-10.8-4.9-10.8-10.8V204.9c0-6,4.9-10.8,10.8-10.8h117.6c6,0,10.8,4.9,10.8,10.8V422
			C362.1,428,357.3,432.9,351.3,432.9z"/>
		<path class="st6" d="M411.9,254.6v117.6c0,6-4.9,10.8-10.8,10.8H183.9c-6,0-10.8-4.9-10.8-10.8V254.6c0-6,4.9-10.8,10.8-10.8H401
			C407,243.8,411.9,248.7,411.9,254.6z"/>
	</g>
</g>
<g class="st0">
	<path class="st1" d="M65.5,157c0,14.5-11.7,26.2-26.2,26.2S13,171.5,13,157c0-14.5,11.7-26.2,26.2-26.2S65.5,142.5,65.5,157z"/>
	<circle class="st2" cx="39.2" cy="157" r="12.9"/>
</g>
<g class="st0">
	<path class="st1" d="M72,442.1c0,4-3.2,7.2-7.2,7.2c-4,0-7.2-3.2-7.2-7.2c0-4,3.2-7.2,7.2-7.2C68.8,434.9,72,438.1,72,442.1z"/>
	<circle class="st2" cx="64.8" cy="442.1" r="3.6"/>
</g>
<g class="st0">
	<path class="st1" d="M757.1,263.2c0,25-20.3,45.3-45.3,45.3c-25,0-45.3-20.3-45.3-45.3s20.3-45.3,45.3-45.3
		C736.8,217.9,757.1,238.2,757.1,263.2z"/>
	<circle class="st2" cx="711.8" cy="263.2" r="22.2"/>
</g>
<g class="st0">
	<path class="st1" d="M814,84.2c0,10.8-8.8,19.6-19.6,19.6c-10.8,0-19.6-8.8-19.6-19.6s8.8-19.6,19.6-19.6
		C805.2,64.6,814,73.4,814,84.2z"/>
	<circle class="st2" cx="794.4" cy="84.2" r="9.6"/>
</g>
</svg>
