<?xml version="1.0" encoding="utf-8"?>
<!-- Generator: Adobe Illustrator 26.4.1, SVG Export Plug-In . SVG Version: 6.00 Build 0)  -->
<svg version="1.1" id="Capa_1" xmlns="http://www.w3.org/2000/svg" xmlns:xlink="http://www.w3.org/1999/xlink" x="0px" y="0px"
	 viewBox="0 0 512 512" style="enable-background:new 0 0 512 512;" xml:space="preserve">
<style type="text/css">
	.st0{opacity:0.6;}
	.st1{opacity:0.2;fill:#08BD62;}
	.st2{opacity:0.4;fill:#08BD62;}
	.st3{opacity:0.8;fill:#08BD62;}
	.st4{fill:#DDDDDD;}
</style>
<g class="st0">
	<path class="st1" d="M491,256.5C491,386,386,491,256.5,491S22,386,22,256.5S127,22,256.5,22S491,127,491,256.5z"/>
	<path class="st2" d="M461.3,256.5c0,113.1-91.7,204.8-204.8,204.8S51.7,369.6,51.7,256.5S143.4,51.7,256.5,51.7
		S461.3,143.4,461.3,256.5z"/>
	<circle class="st3" cx="256.5" cy="256.5" r="154.2"/>
</g>
<g>
	<g>
		<g>
			<g>
				<path class="st4" d="M322.5,192.8l-65.8-19.7c-0.9-0.3-1.9-0.3-2.8,0l-65.8,19.7c-2.1,0.6-3.5,2.5-3.5,4.7v72.4
					c0,9.4,3.8,19.1,11.3,28.7c5.7,7.3,13.7,14.7,23.6,21.9c16.7,12.1,33.1,19.5,33.8,19.8c0.6,0.3,1.3,0.4,2,0.4
					c0.7,0,1.4-0.1,2-0.4c0.7-0.3,17.1-7.7,33.8-19.8c9.9-7.2,17.9-14.5,23.6-21.9c7.5-9.6,11.3-19.2,11.3-28.7v-72.4
					C326,195.3,324.6,193.4,322.5,192.8z M316.2,269.9c0,16.7-16.7,32.3-30.7,42.5c-12.6,9.1-25.3,15.6-30.2,17.9
					c-4.8-2.3-17.6-8.8-30.2-17.9c-14-10.2-30.7-25.8-30.7-42.5v-68.7l60.9-18.3l60.9,18.3V269.9z"/>
			</g>
		</g>
	</g>
</g>
</svg>
