<?xml version="1.0" encoding="utf-8"?>
<!-- Generator: Adobe Illustrator 26.4.1, SVG Export Plug-In . SVG Version: 6.00 Build 0)  -->
<svg version="1.1" id="Camada_1" xmlns="http://www.w3.org/2000/svg" xmlns:xlink="http://www.w3.org/1999/xlink" x="0px" y="0px"
	 viewBox="0 0 229.8 249.7" style="enable-background:new 0 0 229.8 249.7;" xml:space="preserve">
<style type="text/css">
	.st0{opacity:0.6;}
	.st1{opacity:0.4;fill:#08BD62;}
	.st2{opacity:0.8;fill:#08BD62;}
	.st3{fill:#60B7FF;}
	.st4{fill:#26A6FE;}
	.st5{fill:#D8ECFE;}
	.st6{fill:#CDE2FF;}
	.st7{fill:#9CF8D2;}
	.st8{fill:#6CF5C2;}
	.st9{fill:#8D9CA8;}
	.st10{fill:#7A8C98;}
	.st11{fill:#B3DAFE;}
	.st12{fill:#8AC9FE;}
	.st13{fill:#5DE1C4;}
</style>
<g>
	<g class="st0">
		<path class="st1" d="M147.9,20.2c0,5.3-4.3,9.6-9.6,9.6s-9.6-4.3-9.6-9.6s4.3-9.6,9.6-9.6S147.9,14.8,147.9,20.2z"/>
		<circle class="st2" cx="138.2" cy="20.2" r="4.7"/>
	</g>
	<g class="st0">
		<path class="st1" d="M28.1,170.3c0,5.3-4.3,9.6-9.6,9.6s-9.6-4.3-9.6-9.6s4.3-9.6,9.6-9.6S28.1,165,28.1,170.3z"/>
		<circle class="st2" cx="18.4" cy="170.3" r="4.7"/>
	</g>
	<g class="st0">
		<path class="st1" d="M151.7,142.9c0,3-2.5,5.5-5.5,5.5s-5.5-2.5-5.5-5.5s2.5-5.5,5.5-5.5S151.7,139.8,151.7,142.9z"/>
		<circle class="st2" cx="146.2" cy="142.9" r="2.7"/>
	</g>
	<g class="st0">
		<path class="st1" d="M214.2,122.6c0,6.1-4.9,11-11,11s-11-4.9-11-11c0-6.1,4.9-11,11-11S214.2,116.6,214.2,122.6z"/>
		<circle class="st2" cx="203.2" cy="122.6" r="5.4"/>
	</g>
	<g>
		<g>
			<g>
				<path class="st3" d="M193.8,42.4L206,54.6l-27.1,27.1l-12.2-12.2L193.8,42.4z"/>
				<path class="st4" d="M172.7,75.5l27.1-27.1l6.2,6.2l-27.1,27.1L172.7,75.5z"/>
			</g>
			<g>
				<path class="st5" d="M12.1,239.4c-0.8,0-1.6-0.3-2.2-0.9c-1.2-1.2-1.2-3.3,0-4.5l31-31c1.2-1.2,3.3-1.2,4.5,0
					c1.2,1.2,1.2,3.3,0,4.5l-31,31C13.8,239.1,13,239.4,12.1,239.4L12.1,239.4z"/>
			</g>
			<path class="st5" d="M178.5,108.1l-40.4,40.4l-8.1-4.2l-16.7-8.7l-11.9-23.7l0.6-3.7l8.5-8.5l3.6-1.3l0.9-3.2l8.2-8.2l3.3-1.1
				l1.2-3.4l12.5-12.5l21.7,14l11.5,16.8L178.5,108.1z"/>
			<path class="st6" d="M178.5,108.1l-40.4,40.4l-8.1-4.2l43.5-43.5L178.5,108.1z"/>
			<path class="st7" d="M138.1,148.5l-54.9,54.9l-24.4-12L45,165.1l40.6-40.6l3.8-0.9l0.7-3.6l7.4-7.4l3.9-0.8L138.1,148.5z"/>
			<path class="st8" d="M132,142.3l-54.9,54.9l0.6,3.4l5.6,2.7l54.9-54.9L132,142.3z"/>
			<path class="st9" d="M83.3,203.3l-8.7,8.7c-2.2,2.2-5.7,2.4-8.2,1c-1.1-0.6-2.4-1.1-3.7-1.1l-11.2-0.4
				c-5.5-0.2-10.3-3.3-12.8-7.9c-1.1-2-1.8-4.3-1.8-6.8l-0.3-11.1c0-1.3-0.4-2.7-1-3.8c-1.6-2.7-1.1-6.3,1-8.3l8.7-8.7l32,32
				L83.3,203.3z"/>
			<path class="st10" d="M83.3,203.3l-8.7,8.7c-2.2,2.2-5.7,2.4-8.2,1c-1.1-0.6-2.4-1.1-3.7-1.1l-11.2-0.4
				c-5.5-0.2-10.3-3.3-12.8-7.9c0,0,0-0.1,0-0.1c2,1.1,4.3,1.7,6.7,1.8l11.6,0.4c1.1,0,2.2,0.3,3.1,0.9c2.6,1.7,6.2,1.4,8.5-0.9
				l8.7-8.7L83.3,203.3z"/>
			<path class="st11" d="M196.9,94.8l-43.3-43.3c-1.6-1.6-4.2-1.6-5.8,0l-10,10c-1.6,1.6-1.6,4.2,0,5.8l43.3,43.3
				c1.6,1.6,4.2,1.6,5.8,0l10-10C198.5,99.1,198.5,96.4,196.9,94.8L196.9,94.8z"/>
			<path class="st12" d="M196.9,94.8l-6.2-6.2c1.6,1.6,1.6,4.2,0,5.8l-10,10c-1.6,1.6-4.2,1.6-5.8,0l6.2,6.2c1.6,1.6,4.2,1.6,5.8,0
				l10-10C198.5,99.1,198.5,96.4,196.9,94.8L196.9,94.8z"/>
			<path class="st11" d="M220.6,55.4L193,27.8c-2.9-2.9-7.6-2.9-10.6,0l-0.7,0.7c-2.9,2.9-2.9,7.6,0,10.6l27.7,27.7
				c2.9,2.9,7.6,2.9,10.6,0l0.7-0.7C223.5,63.1,223.5,58.3,220.6,55.4z"/>
			<g>
				<path class="st12" d="M220.6,55.4l-6.2-6.2c2.9,2.9,2.9,7.6,0,10.6l-0.7,0.7c-2.9,2.9-7.6,2.9-10.6,0l6.2,6.2
					c2.9,2.9,7.6,2.9,10.6,0l0.7-0.7C223.5,63.1,223.5,58.3,220.6,55.4z"/>
			</g>
			<g>
				<path class="st11" d="M140.1,99.2c-0.6,0.6-1.4,0.9-2.3,0.9c-0.8,0-1.6-0.3-2.2-0.9l-12.3-12.3l4.5-4.5l12.3,12.3
					C141.4,96,141.4,98,140.1,99.2z"/>
			</g>
			<g>
				<path class="st11" d="M127.5,111.9c-0.6,0.6-1.4,0.9-2.2,0.9c-0.8,0-1.6-0.3-2.3-0.9l-12.3-12.3l4.5-4.5l12.3,12.3
					C128.7,108.6,128.7,110.6,127.5,111.9L127.5,111.9z"/>
			</g>
			<g>
				<path class="st11" d="M102.5,136.8c-0.6,0.6-1.4,0.9-2.2,0.9s-1.6-0.3-2.2-0.9l-12.3-12.3l4.5-4.5l12.3,12.3
					C103.7,133.6,103.7,135.6,102.5,136.8z"/>
			</g>
			<g>
				<path class="st11" d="M112.2,125.8c-0.8,0-1.6-0.3-2.2-0.9l-12.3-12.3l4.5-4.5l12.3,12.3c1.2,1.2,1.2,3.3,0,4.5
					C113.8,125.5,113,125.8,112.2,125.8L112.2,125.8z"/>
			</g>
			<g>
				<g>
					<path class="st11" d="M74.2,83.9c-0.8,0-1.6-0.3-2.2-0.9l-7.4-7.4c-1.2-1.2-1.2-3.3,0-4.5c1.2-1.2,3.3-1.2,4.5,0l7.4,7.4
						c1.2,1.2,1.2,3.3,0,4.5C75.8,83.6,75,83.9,74.2,83.9L74.2,83.9z"/>
				</g>
				<g>
					<g>
						<path class="st11" d="M90,76.2c-1.8,0-3.2-1.4-3.2-3.2V61.2c0-1.8,1.4-3.2,3.2-3.2c1.8,0,3.2,1.4,3.2,3.2V73
							C93.2,74.8,91.8,76.2,90,76.2z"/>
					</g>
					<g>
						<path class="st11" d="M66.6,99.7H54.8c-1.8,0-3.2-1.4-3.2-3.2c0-1.8,1.4-3.2,3.2-3.2h11.8c1.8,0,3.2,1.4,3.2,3.2
							C69.7,98.2,68.3,99.7,66.6,99.7z"/>
					</g>
				</g>
			</g>
			<g>
				<circle class="st13" cx="86.5" cy="177.3" r="3.3"/>
			</g>
			<g>
				<circle class="st13" cx="97.3" cy="166.9" r="3.3"/>
			</g>
		</g>
	</g>
</g>
</svg>
