<?xml version="1.0" encoding="utf-8"?>
<!-- Generator: Adobe Illustrator 26.4.1, SVG Export Plug-In . SVG Version: 6.00 Build 0)  -->
<svg version="1.1" id="Camada_1" xmlns="http://www.w3.org/2000/svg" xmlns:xlink="http://www.w3.org/1999/xlink" x="0px" y="0px"
	 viewBox="0 0 31.9 32" style="enable-background:new 0 0 31.9 32;" xml:space="preserve">
<style type="text/css">
	.st0{fill:#EF2163;}
	.st1{fill:#662C8E;}
	.st2{fill:#4A216C;}
	.st3{fill:#FF9D2B;}
	.st4{fill:#F7BD9C;}
	.st5{fill:#A6CD3C;}
</style>
<g>
	<path class="st0" d="M15.9,0.6C7.4,0.6,0.5,7.5,0.5,16c0,3.7,1.3,7.1,3.5,9.7c0.1,0,0.1-0.1,0.2-0.1l1.4-1.3v-9.7
		c0-5.2,4.2-9.4,9.4-9.4h2.4c3.4,0,6.4,1.9,7.9,4.7h3.2v0.9c0,1.9-0.8,3.7-2.1,5v7l0.4-0.3c0.4-0.2,0.9-0.1,1.1,0.2l0.2,0.3
		c0.1,0.1,0.1,0.2,0.1,0.3h0.9c0.1,0,0.3,0,0.4,0c1.2-2.2,1.9-4.7,1.9-7.4C31.3,7.5,24.5,0.6,15.9,0.6z"/>
	<path class="st1" d="M9.1,24.2l0.4-0.4c0.6-0.6,1.5-0.8,2.3-0.6v-0.5v-5v-0.8v-0.1c0-3.8,3.1-6.9,6.9-6.9h0.1h1.5h4.9
		c-1.5-2.8-4.5-4.7-7.9-4.7h-2.4c-5.2,0-9.4,4.2-9.4,9.4v9.7l0.2-0.2C6.7,23.3,8.2,23.3,9.1,24.2z"/>
	<path class="st1" d="M25.1,23.3h0.6c0,0,0.1-0.1,0.1-0.1l0.6-0.4v-7c-0.4,0.4-0.9,0.7-1.4,1V23.3z"/>
	<path class="st1" d="M18,28.9h-5.7l-1.7,1.6c1.7,0.6,3.5,1,5.4,1c0.7,0,1.4-0.1,2.1-0.1c1.3-0.2,2.6-0.5,3.8-1
		c-0.3-0.4-0.6-0.8-0.6-1.4H18z"/>
	<path class="st2" d="M21.6,17.8h0.3v5.6h3.2v-6.5C24,17.4,22.9,17.8,21.6,17.8z"/>
	<path class="st2" d="M11.8,23.3C11.9,23.3,11.9,23.3,11.8,23.3c0-0.2,0-0.3,0-0.5V23.3z"/>
	<path class="st3" d="M18.8,10L18.8,10c-3.9,0-7,3.1-7,6.9v0.1v0.8h9.8c1.3,0,2.4-0.3,3.4-0.9c0.5-0.3,0.9-0.6,1.4-1
		c1.3-1.3,2.1-3,2.1-5V10h-3.2h-4.9H18.8z"/>
	<path class="st4" d="M21.6,17.8h-9.8v5c0,0.2,0,0.4,0,0.5c0,0,0.1,0,0.1,0c0.1,0,0.1,0,0.2,0h9.7v-5.6H21.6z M15,21.5
		c0,0.4-0.3,0.7-0.7,0.7h-0.2c-0.4,0-0.7-0.3-0.7-0.7v-1.4c0-0.4,0.3-0.7,0.7-0.7h0.2c0.4,0,0.7,0.3,0.7,0.7V21.5z M20.9,21.5
		c0,0.4-0.3,0.7-0.7,0.7H20c-0.4,0-0.7-0.3-0.7-0.7v-1.4c0-0.4,0.3-0.7,0.7-0.7h0.2c0.4,0,0.7,0.3,0.7,0.7V21.5z"/>
	<path d="M28.2,23.3c0-0.1-0.1-0.2-0.1-0.3l-0.2-0.3c-0.2-0.4-0.7-0.5-1.1-0.2l-0.4,0.3l-0.6,0.4c-0.1,0-0.1,0.1-0.1,0.1h-0.6h-3.2
		h-9.7c-0.1,0-0.1,0-0.2,0c0,0-0.1,0-0.1,0c0,0,0,0,0,0c-0.8-0.2-1.7,0-2.3,0.6l-0.4,0.4l-1.3,1.2h2.1h0.2h1.6c0.1,0,0.2,0,0.3,0.1
		c0.5,0.1,0.8,0.5,0.9,1c0,0.1,0,0.1,0,0.2V27c0,0.6-0.5,1.1-1.1,1.1h-0.5v0.4c0,0.1,0,0.1,0,0.2c0,0.7-0.3,1.3-0.7,1.7c0,0,0,0,0,0
		l1.7-1.6H18h3.2c0-0.1,0-0.3,0-0.4v-0.1v-0.7c0-0.4,0.1-0.7,0.2-1c0.1-0.3,0.3-0.6,0.6-0.8c0.5-0.5,1.2-0.8,1.9-0.8h0.7
		c0.2,0,0.3,0,0.5,0.1c0.5,0.1,1,0.4,1.4,0.8c0.2,0.2,0.4,0.5,0.6,0.8c1-1,1.8-2.2,2.5-3.4c-0.1,0-0.3,0-0.4,0H28.2z M14.3,24.5h5.4
		c0.3,0,0.5,0.2,0.5,0.5v0.1c0,0.3-0.2,0.5-0.5,0.5h-5.4c-0.1,0-0.2,0-0.3-0.1c-0.1-0.1-0.2-0.3-0.2-0.4v-0.1c0,0,0,0,0,0
		C13.8,24.7,14.1,24.5,14.3,24.5z"/>
	<path class="st4" d="M25,25.2c-0.2,0-0.3-0.1-0.5-0.1h-0.7c-0.7,0-1.4,0.3-1.9,0.8c-0.2,0.2-0.4,0.5-0.6,0.8
		c-0.1,0.3-0.2,0.6-0.2,1v0.7v0.1c0,0.1,0,0.3,0,0.4c0.1,0.5,0.3,1,0.6,1.4c0.2-0.1,0.4-0.2,0.5-0.2c0.7-0.3,1.4-0.7,2-1.1
		c0.7-0.5,1.4-1,2-1.6c0.2-0.2,0.4-0.4,0.6-0.6c-0.1-0.3-0.3-0.6-0.6-0.8C26,25.5,25.6,25.3,25,25.2z"/>
	<path class="st2" d="M5.5,25.4h1.4h0.9l1.3-1.2c-0.9-0.9-2.4-0.9-3.4-0.1l-0.2,0.2l-1.4,1.3c0.3-0.1,0.7-0.2,1-0.2H5.5z"/>
	<path d="M14.3,19.4h-0.2c-0.4,0-0.7,0.3-0.7,0.7v1.4c0,0.4,0.3,0.7,0.7,0.7h0.2c0.4,0,0.7-0.3,0.7-0.7v-1.4
		C15,19.7,14.7,19.4,14.3,19.4z"/>
	<path class="st4" d="M11.2,28.5v-0.4h0.5c0.6,0,1.1-0.5,1.1-1.1v-0.3c0-0.1,0-0.1,0-0.2c-0.1-0.5-0.4-0.9-0.9-1
		c-0.1,0-0.2-0.1-0.3-0.1h-1.6H9.9H7.8H6.9v0.9v1.9v0.3v0c0.4,0.3,0.9,0.6,1.4,0.9c0.5,0.3,1,0.6,1.6,0.8c0.2,0.1,0.4,0.2,0.6,0.3
		c0.4-0.5,0.7-1.1,0.7-1.7C11.2,28.6,11.2,28.6,11.2,28.5z"/>
	<path class="st1" d="M6.9,28.1v-1.9v-0.9H5.5H5.2c-0.4,0-0.7,0.1-1,0.2c-0.1,0-0.1,0.1-0.2,0.1c0,0,0,0,0,0c0.5,0.6,1,1.1,1.5,1.6
		c0,0,0.1,0,0.1,0.1c0.4,0.3,0.8,0.7,1.2,1c0,0,0,0,0.1,0v0V28.1z"/>
	<path d="M20.2,19.4H20c-0.4,0-0.7,0.3-0.7,0.7v1.4c0,0.4,0.3,0.7,0.7,0.7h0.2c0.4,0,0.7-0.3,0.7-0.7v-1.4
		C20.9,19.7,20.6,19.4,20.2,19.4z"/>
	<path class="st5" d="M13.8,25.2c0,0.2,0.1,0.3,0.2,0.4c0.1,0.1,0.2,0.1,0.3,0.1h5.4c0.3,0,0.5-0.2,0.5-0.5v-0.1
		c0-0.3-0.2-0.5-0.5-0.5h-5.4c-0.3,0-0.5,0.2-0.5,0.5c0,0,0,0,0,0V25.2z"/>
</g>
</svg>
