<?xml version="1.0" encoding="utf-8"?>
<!-- Generator: Adobe Illustrator 26.4.1, SVG Export Plug-In . SVG Version: 6.00 Build 0)  -->
<svg version="1.1" id="Camada_1" xmlns="http://www.w3.org/2000/svg" xmlns:xlink="http://www.w3.org/1999/xlink" x="0px" y="0px"
	 viewBox="0 0 31.9 32" style="enable-background:new 0 0 31.9 32;" xml:space="preserve">
<style type="text/css">
	.st0{fill-rule:evenodd;clip-rule:evenodd;fill:#FFFFFF;}
	.st1{fill:#FFFFFF;}
</style>
<g>
	<g>
		<path class="st0" d="M15.9,1C7.4,1,0.6,7.9,0.6,16.4C0.6,23.2,5,28.9,11.1,31c0.8,0.1,1.1-0.3,1.1-0.7c0-0.4,0-1.6,0-2.9
			c-4.3,0.9-5.2-1.8-5.2-1.8c-0.7-1.8-1.7-2.3-1.7-2.3c-1.4-1,0.1-0.9,0.1-0.9C6.9,22.5,7.7,24,7.7,24c1.4,2.4,3.6,1.7,4.5,1.3
			c0.1-1,0.5-1.7,1-2.1c-3.4-0.4-7-1.7-7-7.6c0-1.7,0.6-3.1,1.6-4.1c-0.2-0.4-0.7-2,0.1-4.1c0,0,1.3-0.4,4.2,1.6
			c1.2-0.3,2.5-0.5,3.9-0.5c1.3,0,2.6,0.2,3.9,0.5C22.7,7,24,7.4,24,7.4c0.8,2.1,0.3,3.7,0.2,4.1c1,1.1,1.6,2.5,1.6,4.1
			c0,5.9-3.6,7.2-7,7.6c0.6,0.5,1,1.4,1,2.8c0,2.1,0,3.7,0,4.2c0,0.4,0.3,0.9,1.1,0.7c6.1-2,10.5-7.8,10.5-14.6
			C31.3,7.9,24.4,1,15.9,1z"/>
		<path class="st1" d="M6.4,23.1c0,0.1-0.2,0.1-0.3,0C6,23.1,5.9,23,6,22.9c0-0.1,0.2-0.1,0.3,0C6.4,22.9,6.4,23,6.4,23.1L6.4,23.1z
			"/>
		<path class="st1" d="M7,23.8c-0.1,0.1-0.2,0-0.3-0.1c-0.1-0.1-0.1-0.3,0-0.3c0.1-0.1,0.2,0,0.3,0.1C7.1,23.6,7.1,23.7,7,23.8
			L7,23.8z"/>
		<path class="st1" d="M7.6,24.7c-0.1,0.1-0.2,0-0.3-0.1c-0.1-0.1-0.1-0.3,0-0.4c0.1-0.1,0.2,0,0.3,0.1C7.7,24.4,7.7,24.6,7.6,24.7
			L7.6,24.7z"/>
		<path class="st1" d="M8.4,25.5c-0.1,0.1-0.3,0.1-0.4-0.1c-0.1-0.1-0.2-0.3-0.1-0.4C8,25,8.2,25,8.4,25.1
			C8.5,25.3,8.5,25.4,8.4,25.5L8.4,25.5z"/>
		<path class="st1" d="M9.6,26c0,0.1-0.2,0.2-0.4,0.1C9,26.1,8.9,26,9,25.8c0-0.1,0.2-0.2,0.4-0.1C9.5,25.8,9.6,25.9,9.6,26L9.6,26z
			"/>
		<path class="st1" d="M10.8,26.1c0,0.1-0.1,0.2-0.3,0.2c-0.2,0-0.3-0.1-0.3-0.2c0-0.1,0.1-0.2,0.3-0.2C10.7,25.9,10.8,26,10.8,26.1
			L10.8,26.1z"/>
		<path class="st1" d="M12,25.9c0,0.1-0.1,0.3-0.3,0.3c-0.2,0-0.3,0-0.4-0.2c0-0.1,0.1-0.3,0.3-0.3C11.8,25.7,12,25.8,12,25.9
			L12,25.9z"/>
	</g>
</g>
</svg>
