<?xml version="1.0" encoding="utf-8"?>
<!-- Generator: Adobe Illustrator 26.4.1, SVG Export Plug-In . SVG Version: 6.00 Build 0)  -->
<svg version="1.1" id="Camada_1" xmlns="http://www.w3.org/2000/svg" xmlns:xlink="http://www.w3.org/1999/xlink" x="0px" y="0px"
	 viewBox="0 0 31.9 32" style="enable-background:new 0 0 31.9 32;" xml:space="preserve">
<style type="text/css">
	.st0{fill:url(#SVGID_1_);}
	.st1{fill:url(#SVGID_00000046334980652045784570000012449399156032224178_);}
	.st2{fill:url(#SVGID_00000178926980416062821110000018094257290661230230_);}
	.st3{fill:url(#SVGID_00000079480598324825315210000006363769800747016594_);}
	.st4{opacity:0.4;fill:#08BD62;}
	.st5{opacity:0.8;fill:#08BD62;}
	.st6{opacity:0.6;}
</style>
<g>
	<g>
		
			<linearGradient id="SVGID_1_" gradientUnits="userSpaceOnUse" x1="-544.9808" y1="-7984.6675" x2="-563.1496" y2="-7966.4985" gradientTransform="matrix(1 0 0 1 564 7988)">
			<stop  offset="0" style="stop-color:#00A0FF"/>
			<stop  offset="6.599999e-03" style="stop-color:#00A2FF"/>
			<stop  offset="0.2601" style="stop-color:#00BEFF"/>
			<stop  offset="0.5122" style="stop-color:#00D2FF"/>
			<stop  offset="0.7604" style="stop-color:#00DFFF"/>
			<stop  offset="1" style="stop-color:#00E3FF"/>
		</linearGradient>
		<path class="st0" d="M6.7,2.1C6.4,2.4,6.2,2.9,6.2,3.6v23.9c0,0.7,0.2,1.2,0.5,1.5l0.1,0.1l13.4-13.4v-0.2v-0.2L6.7,2.1L6.7,2.1z"
			/>
		
			<linearGradient id="SVGID_00000065036519142813224560000003494301794864583051_" gradientUnits="userSpaceOnUse" x1="-531.952" y1="-7972.4429" x2="-558.1478" y2="-7972.4429" gradientTransform="matrix(1 0 0 1 564 7988)">
			<stop  offset="0" style="stop-color:#FFE000"/>
			<stop  offset="0.4087" style="stop-color:#FFBD00"/>
			<stop  offset="0.7754" style="stop-color:#FFA600"/>
			<stop  offset="1" style="stop-color:#FF9C00"/>
		</linearGradient>
		<path style="fill:url(#SVGID_00000065036519142813224560000003494301794864583051_);" d="M24.7,20.2l-4.5-4.5v-0.2v-0.2l4.5-4.5
			l0.1,0.1l5.3,3c1.5,0.9,1.5,2.3,0,3.1l-5.3,3L24.7,20.2z"/>
		
			<linearGradient id="SVGID_00000088812878970821750040000003291059600700140960_" gradientUnits="userSpaceOnUse" x1="-541.7036" y1="-7969.9585" x2="-566.3419" y2="-7945.3203" gradientTransform="matrix(1 0 0 1 564 7988)">
			<stop  offset="0" style="stop-color:#FF3743"/>
			<stop  offset="1" style="stop-color:#E30864"/>
		</linearGradient>
		<path style="fill:url(#SVGID_00000088812878970821750040000003291059600700140960_);" d="M24.8,20.1l-4.6-4.6L6.7,29
			C7.2,29.6,8,29.6,9,29.1L24.8,20.1"/>
		
			<linearGradient id="SVGID_00000145748362061615308730000014622212787743188110_" gradientUnits="userSpaceOnUse" x1="-560.6812" y1="-7993.9058" x2="-549.6792" y2="-7982.9038" gradientTransform="matrix(1 0 0 1 564 7988)">
			<stop  offset="0" style="stop-color:#00A06F"/>
			<stop  offset="6.850000e-02" style="stop-color:#00A86E"/>
			<stop  offset="0.4762" style="stop-color:#00CF6E"/>
			<stop  offset="0.8009" style="stop-color:#00E76D"/>
			<stop  offset="1" style="stop-color:#00EF6D"/>
		</linearGradient>
		<path style="fill:url(#SVGID_00000145748362061615308730000014622212787743188110_);" d="M24.8,11L9,2C8,1.5,7.2,1.5,6.7,2.1
			l13.5,13.5L24.8,11z"/>
	</g>
</g>
<g>
	<path class="st4" d="M28.2,7.6c0,3.8-3.1,6.9-6.9,6.9s-6.9-3.1-6.9-6.9s3.1-6.9,6.9-6.9S28.2,3.8,28.2,7.6z"/>
	<circle class="st5" cx="21.3" cy="7.6" r="3.4"/>
</g>
<g class="st6">
	<path class="st4" d="M6,28.8c0,1.4-1.1,2.5-2.5,2.5S1,30.2,1,28.8c0-1.4,1.1-2.5,2.5-2.5S6,27.4,6,28.8z"/>
	<circle class="st5" cx="3.5" cy="28.8" r="1.2"/>
</g>
</svg>
